{
	"asset":{
		"generator":"Khronos glTF Blender I/O v4.5.47",
		"version":"2.0"
	},
	"extensionsUsed":[
		"EXT_texture_webp"
	],
	"extensionsRequired":[
		"EXT_texture_webp"
	],
	"scene":0,
	"scenes":[
		{
			"name":"Scene",
			"nodes":[
				0,
				1,
				2,
				3,
				4,
				5,
				6,
				7,
				8,
				9,
				10,
				11,
				12,
				13,
				14,
				15,
				16,
				17,
				18,
				19,
				20,
				21,
				22,
				23,
				24,
				25,
				26,
				27,
				28,
				29,
				30,
				31,
				32,
				33,
				34,
				35,
				36,
				37,
				38,
				39,
				40,
				41,
				42,
				43,
				44,
				45,
				46,
				47,
				48,
				49,
				50,
				51,
				52,
				53,
				54,
				55,
				56,
				57,
				58,
				59,
				60,
				61,
				62,
				63,
				64,
				65,
				66,
				67,
				68,
				69,
				70,
				71,
				72,
				73,
				74,
				75,
				76,
				77,
				78,
				79,
				80,
				81,
				82,
				83,
				84,
				85,
				86,
				87,
				88,
				89,
				90,
				91,
				92,
				93,
				94,
				95,
				96,
				97,
				98,
				99,
				100,
				101,
				102,
				103,
				104,
				105,
				106,
				107,
				108,
				109,
				110,
				111,
				112,
				113,
				114,
				115,
				116,
				117,
				118,
				119,
				120
			]
		}
	],
	"nodes":[
		{
			"mesh":0,
			"name":"Character_init",
			"translation":[
				37.19955825805664,
				5.399064064025879,
				-12.41286563873291
			]
		},
		{
			"mesh":1,
			"name":"suelo_collision"
		},
		{
			"mesh":2,
			"name":"escalera_collision"
		},
		{
			"mesh":3,
			"name":"plataforma_collision"
		},
		{
			"mesh":4,
			"name":"escalera_collision.001"
		},
		{
			"mesh":5,
			"name":"plataforma_collision.001"
		},
		{
			"mesh":6,
			"name":"escalera_collision.002"
		},
		{
			"mesh":7,
			"name":"plataforma_collision.002"
		},
		{
			"mesh":8,
			"name":"escalera_collision.003"
		},
		{
			"mesh":9,
			"name":"plataforma_collision.003"
		},
		{
			"mesh":10,
			"name":"Cube.046"
		},
		{
			"mesh":11,
			"name":"Cube.047"
		},
		{
			"mesh":12,
			"name":"Cube.048"
		},
		{
			"mesh":13,
			"name":"Cube.050"
		},
		{
			"mesh":14,
			"name":"Cube.051"
		},
		{
			"mesh":15,
			"name":"Cube.052"
		},
		{
			"mesh":16,
			"name":"Cube.053"
		},
		{
			"mesh":17,
			"name":"Cube.054"
		},
		{
			"mesh":18,
			"name":"Cube.055"
		},
		{
			"mesh":19,
			"name":"Cube.056"
		},
		{
			"mesh":20,
			"name":"Cube.057"
		},
		{
			"mesh":21,
			"name":"Cube.058"
		},
		{
			"mesh":22,
			"name":"Cube.059"
		},
		{
			"mesh":23,
			"name":"Cube.060"
		},
		{
			"mesh":24,
			"name":"Cube.061"
		},
		{
			"mesh":25,
			"name":"Cube.062"
		},
		{
			"mesh":26,
			"name":"Cylinder"
		},
		{
			"mesh":27,
			"name":"Cube.049"
		},
		{
			"mesh":28,
			"name":"Cube.002",
			"rotation":[
				-0.5696262717247009,
				0.4189580976963043,
				0.5696263313293457,
				0.41895806789398193
			],
			"translation":[
				32.545379638671875,
				13.182809829711914,
				-15.753353118896484
			]
		},
		{
			"mesh":29,
			"name":"Cube.003",
			"rotation":[
				-0.5696262717247009,
				0.4189580976963043,
				0.5696263313293457,
				0.41895806789398193
			],
			"translation":[
				32.545379638671875,
				13.182809829711914,
				-18.657663345336914
			]
		},
		{
			"mesh":30,
			"name":"Cube.004",
			"rotation":[
				-0.5696262717247009,
				0.4189580976963043,
				0.5696263313293457,
				0.41895806789398193
			],
			"translation":[
				32.545379638671875,
				13.182809829711914,
				-21.58200454711914
			]
		},
		{
			"mesh":31,
			"name":"Cube.005",
			"rotation":[
				-0.5696262717247009,
				0.4189580976963043,
				0.5696263313293457,
				0.41895806789398193
			],
			"translation":[
				32.54537582397461,
				13.182809829711914,
				-24.48631477355957
			]
		},
		{
			"mesh":32,
			"name":"Cube.001",
			"rotation":[
				-0.5696262717247009,
				0.4189580976963043,
				0.5696263313293457,
				0.41895806789398193
			],
			"translation":[
				32.54537582397461,
				13.182809829711914,
				-27.350566864013672
			]
		},
		{
			"mesh":33,
			"name":"Cube.010",
			"rotation":[
				-0.5696262717247009,
				0.4189580976963043,
				0.5696263313293457,
				0.41895806789398193
			],
			"translation":[
				32.54537582397461,
				13.182809829711914,
				-30.2548770904541
			]
		},
		{
			"mesh":34,
			"name":"Cube.006",
			"rotation":[
				-0.5696262717247009,
				0.4189580976963043,
				0.5696263313293457,
				0.41895806789398193
			],
			"translation":[
				32.545379638671875,
				13.182809829711914,
				5.324974060058594
			]
		},
		{
			"mesh":35,
			"name":"Cube.007",
			"rotation":[
				-0.5696262717247009,
				0.4189580976963043,
				0.5696263313293457,
				0.41895806789398193
			],
			"translation":[
				32.545379638671875,
				13.182809829711914,
				2.420663833618164
			]
		},
		{
			"mesh":36,
			"name":"Cube.008",
			"rotation":[
				-0.5696262717247009,
				0.4189580976963043,
				0.5696263313293457,
				0.41895806789398193
			],
			"translation":[
				32.545379638671875,
				13.182809829711914,
				-0.5036773681640625
			]
		},
		{
			"mesh":37,
			"name":"Cube.009",
			"rotation":[
				-0.5696262717247009,
				0.4189580976963043,
				0.5696263313293457,
				0.41895806789398193
			],
			"translation":[
				32.545379638671875,
				13.182809829711914,
				-3.407987594604492
			]
		},
		{
			"mesh":38,
			"name":"Cube.011",
			"rotation":[
				-0.5696262717247009,
				0.4189580976963043,
				0.5696263313293457,
				0.41895806789398193
			],
			"translation":[
				32.545379638671875,
				13.182809829711914,
				-6.272239685058594
			]
		},
		{
			"mesh":39,
			"name":"Cube.012",
			"rotation":[
				-0.5696262717247009,
				0.4189580976963043,
				0.5696263313293457,
				0.41895806789398193
			],
			"translation":[
				32.545379638671875,
				13.182809829711914,
				-9.176549911499023
			]
		},
		{
			"mesh":40,
			"name":"estatua_1",
			"rotation":[
				0,
				-0.596994161605835,
				0,
				0.8022456169128418
			],
			"scale":[
				1.908402681350708,
				1.9084025621414185,
				1.908402681350708
			],
			"translation":[
				58.29328155517578,
				-3.3803205490112305,
				-12.751093864440918
			]
		},
		{
			"mesh":40,
			"name":"estatua_1.001",
			"rotation":[
				0,
				0.004576649516820908,
				0,
				0.9999896287918091
			],
			"scale":[
				1.9084025621414185,
				1.9084025621414185,
				1.9084025621414185
			],
			"translation":[
				58.29328155517578,
				-3.3803205490112305,
				-12.751093864440918
			]
		},
		{
			"mesh":40,
			"name":"estatua_1.002",
			"rotation":[
				0,
				0.5950687527656555,
				0,
				0.8036748170852661
			],
			"scale":[
				1.908402442932129,
				1.9084025621414185,
				1.908402442932129
			],
			"translation":[
				58.29328155517578,
				-3.3803205490112305,
				-12.751093864440918
			]
		},
		{
			"mesh":40,
			"name":"estatua_1.003",
			"rotation":[
				0,
				0.9483287334442139,
				0,
				0.3172897696495056
			],
			"scale":[
				1.9084025621414185,
				1.9084025621414185,
				1.9084025621414185
			],
			"translation":[
				58.29328155517578,
				-3.3803205490112305,
				-12.751093864440918
			]
		},
		{
			"mesh":40,
			"name":"estatua_1.004",
			"rotation":[
				0,
				-0.95297771692276,
				0,
				0.3030407130718231
			],
			"scale":[
				1.908402681350708,
				1.9084025621414185,
				1.908402681350708
			],
			"translation":[
				58.29328155517578,
				-3.3803205490112305,
				-12.751093864440918
			]
		},
		{
			"mesh":41,
			"name":"Roca_F2_Big",
			"rotation":[
				-0.05121161788702011,
				0.47059115767478943,
				-0.030017642304301262,
				0.8803523778915405
			],
			"scale":[
				1.908402442932129,
				1.908402919769287,
				1.908402681350708
			],
			"translation":[
				73.64340209960938,
				7.699642181396484,
				-32.74116516113281
			]
		},
		{
			"mesh":42,
			"name":"Roca_F2_Small",
			"rotation":[
				-0.7227093577384949,
				0.16401664912700653,
				-0.6622755527496338,
				0.11036666482686996
			],
			"scale":[
				1.908402681350708,
				1.9084025621414185,
				1.9084025621414185
			],
			"translation":[
				77.0650634765625,
				5.516650199890137,
				-23.023391723632812
			]
		},
		{
			"mesh":41,
			"name":"Roca_F2_Big.001",
			"rotation":[
				0.06186031922698021,
				-0.5080345273017883,
				-0.14227190613746643,
				0.8472503423690796
			],
			"scale":[
				1.9084025621414185,
				1.9084025621414185,
				1.9084025621414185
			],
			"translation":[
				80.791015625,
				8.03573226928711,
				-23.838531494140625
			]
		},
		{
			"mesh":42,
			"name":"Roca_F2_Small.001",
			"rotation":[
				0.6655794978141785,
				-0.019202183932065964,
				-0.7028509378433228,
				0.2502714991569519
			],
			"scale":[
				1.908402681350708,
				1.908402681350708,
				1.908402442932129
			],
			"translation":[
				71.97511291503906,
				4.535281181335449,
				-29.89166259765625
			]
		},
		{
			"mesh":42,
			"name":"Roca_F2_Small.002",
			"rotation":[
				-0.11488094180822372,
				-0.17878825962543488,
				0.11342684924602509,
				0.9705522060394287
			],
			"scale":[
				0.9595845937728882,
				0.9595845341682434,
				0.9595844149589539
			],
			"translation":[
				72.70464324951172,
				6.352124214172363,
				-29.565731048583984
			]
		},
		{
			"mesh":42,
			"name":"Roca_F2_Small.003",
			"rotation":[
				0.10238572210073471,
				-0.12356985360383987,
				0.9517031311988831,
				0.2617418169975281
			],
			"scale":[
				0.9595844149589539,
				0.9595844745635986,
				0.9595845937728882
			],
			"translation":[
				77.37769317626953,
				7.096408843994141,
				-23.780651092529297
			]
		},
		{
			"mesh":41,
			"name":"Roca_F2_Big.002",
			"rotation":[
				-0.0018266028491780162,
				-0.8423260450363159,
				-0.10993140935897827,
				0.527634859085083
			],
			"scale":[
				1.9084022045135498,
				1.9084028005599976,
				1.9084025621414185
			],
			"translation":[
				80.30903625488281,
				13.159019470214844,
				-31.005699157714844
			]
		},
		{
			"mesh":41,
			"name":"Roca_F2_Big.003",
			"rotation":[
				0.1596834659576416,
				0.9636762738227844,
				0.19570745527744293,
				0.08676420897245407
			],
			"scale":[
				1.6516112089157104,
				1.6516109704971313,
				1.6516106128692627
			],
			"translation":[
				82.09020233154297,
				9.004446983337402,
				-28.381431579589844
			]
		},
		{
			"mesh":42,
			"name":"Roca_F2_Small.004",
			"rotation":[
				-0.04945501312613487,
				0.9327239394187927,
				-0.035782646387815475,
				0.3553868532180786
			],
			"scale":[
				0.9595847129821777,
				0.959584653377533,
				0.9595844745635986
			],
			"translation":[
				75.52635192871094,
				11.754514694213867,
				-32.24345016479492
			]
		},
		{
			"mesh":41,
			"name":"Roca_F2_Big.004",
			"rotation":[
				-0.4892989695072174,
				-0.043804630637168884,
				0.8530904650688171,
				0.17579640448093414
			],
			"scale":[
				1.9084025621414185,
				1.5154794454574585,
				1.9084028005599976
			],
			"translation":[
				82.89413452148438,
				12.70809555053711,
				-29.26395034790039
			]
		},
		{
			"mesh":41,
			"name":"Roca_F2_Big.005",
			"rotation":[
				0.06280765682458878,
				-0.3575578033924103,
				-0.004604921210557222,
				0.9317651987075806
			],
			"scale":[
				1.9084025621414185,
				1.9084025621414185,
				1.9084025621414185
			],
			"translation":[
				77.64738464355469,
				11.596500396728516,
				-33.47853469848633
			]
		},
		{
			"mesh":41,
			"name":"Roca_F2_Big.006",
			"rotation":[
				-0.216066375374794,
				-0.24413643777370453,
				-0.05718662589788437,
				0.9436325430870056
			],
			"scale":[
				1.9084025621414185,
				1.9084025621414185,
				1.9084028005599976
			],
			"translation":[
				80.49459075927734,
				6.118117332458496,
				-1.1639039516448975
			]
		},
		{
			"mesh":42,
			"name":"Roca_F2_Small.005",
			"rotation":[
				-0.2971372902393341,
				0.006374512333422899,
				-0.9341451525688171,
				0.19758950173854828
			],
			"scale":[
				1.9084028005599976,
				1.9084025621414185,
				1.9084028005599976
			],
			"translation":[
				72.52630615234375,
				4.196386337280273,
				3.90507435798645
			]
		},
		{
			"mesh":41,
			"name":"Roca_F2_Big.007",
			"rotation":[
				0.05531270056962967,
				0.4116024971008301,
				0.1714009791612625,
				0.8933899402618408
			],
			"scale":[
				1.6194416284561157,
				1.6194411516189575,
				1.6194416284561157
			],
			"translation":[
				73.84900665283203,
				6.743980884552002,
				7.4403228759765625
			]
		},
		{
			"mesh":42,
			"name":"Roca_F2_Small.006",
			"rotation":[
				0.7659355401992798,
				-0.02210056409239769,
				0.5299774408340454,
				0.36328813433647156
			],
			"scale":[
				1.908402442932129,
				1.9084025621414185,
				1.9084025621414185
			],
			"translation":[
				78.28790283203125,
				2.8158583641052246,
				-2.4220454692840576
			]
		},
		{
			"mesh":42,
			"name":"Roca_F2_Small.007",
			"rotation":[
				0.05007419362664223,
				0.8387258052825928,
				-0.1534789800643921,
				0.520072877407074
			],
			"scale":[
				0.9595847129821777,
				0.9595844745635986,
				0.9595845937728882
			],
			"translation":[
				78.03909301757812,
				4.6327009201049805,
				-1.6627538204193115
			]
		},
		{
			"mesh":42,
			"name":"Roca_F2_Small.008",
			"rotation":[
				-0.5611928105354309,
				-0.2670370042324066,
				0.7754253149032593,
				0.11166714131832123
			],
			"scale":[
				0.9595845341682434,
				0.9595844745635986,
				0.9595845341682434
			],
			"translation":[
				73.31182861328125,
				5.776145935058594,
				4.137788772583008
			]
		},
		{
			"mesh":41,
			"name":"Roca_F2_Big.008",
			"rotation":[
				0.02909741923213005,
				0.9790307879447937,
				-0.1540544182062149,
				0.13007484376430511
			],
			"scale":[
				1.908402442932129,
				1.9084025621414185,
				1.9084025621414185
			],
			"translation":[
				80.95922088623047,
				14.04324722290039,
				4.662435531616211
			]
		},
		{
			"mesh":41,
			"name":"Roca_F2_Big.009",
			"rotation":[
				-0.0333341509103775,
				0.6447115540504456,
				0.287267804145813,
				0.7076107859611511
			],
			"scale":[
				1.6516112089157104,
				1.6516108512878418,
				1.6516108512878418
			],
			"translation":[
				77.83097839355469,
				7.285025596618652,
				7.794952392578125
			]
		},
		{
			"mesh":42,
			"name":"Roca_F2_Small.009",
			"rotation":[
				-0.06011039391160011,
				0.4510049819946289,
				-0.15197701752185822,
				0.8774306178092957
			],
			"scale":[
				0.9595844745635986,
				0.9595845937728882,
				0.959584653377533
			],
			"translation":[
				80.99404907226562,
				10.035091400146484,
				0.8671743869781494
			]
		},
		{
			"mesh":41,
			"name":"Roca_F2_Big.010",
			"rotation":[
				0.9384033679962158,
				-0.09196963906288147,
				-0.3163657784461975,
				0.10417962819337845
			],
			"scale":[
				1.9084025621414185,
				1.515479564666748,
				1.9084025621414185
			],
			"translation":[
				78.58480072021484,
				11.91686725616455,
				8.210529327392578
			]
		},
		{
			"mesh":41,
			"name":"Roca_F2_Big.011",
			"rotation":[
				-0.09947085380554199,
				-0.8852807879447937,
				0.11366697400808334,
				0.43984466791152954
			],
			"scale":[
				1.908402442932129,
				1.9084025621414185,
				1.908402681350708
			],
			"translation":[
				82.37625122070312,
				7.990872383117676,
				2.542069673538208
			]
		},
		{
			"mesh":41,
			"name":"Roca_F2_Big.012",
			"rotation":[
				-0.22776494920253754,
				0.8671074509620667,
				0.17682893574237823,
				0.40617653727531433
			],
			"scale":[
				1.9084025621414185,
				1.908402442932129,
				1.908402442932129
			],
			"translation":[
				43.84516143798828,
				10.45616626739502,
				-34.62958526611328
			]
		},
		{
			"mesh":42,
			"name":"Roca_F2_Small.010",
			"rotation":[
				0.8994131684303284,
				-0.38457295298576355,
				0.1852400302886963,
				0.09405288100242615
			],
			"scale":[
				1.9084025621414185,
				1.908402681350708,
				1.9084022045135498
			],
			"translation":[
				56.37226867675781,
				5.516650199890137,
				-34.45881652832031
			]
		},
		{
			"mesh":41,
			"name":"Roca_F2_Big.013",
			"rotation":[
				-0.05996044725179672,
				0.0238314401358366,
				-0.30060967803001404,
				0.9515622854232788
			],
			"scale":[
				1.908402681350708,
				1.908402681350708,
				1.9084022045135498
			],
			"translation":[
				57.32239532470703,
				9.55451488494873,
				-38.69590377807617
			]
		},
		{
			"mesh":42,
			"name":"Roca_F2_Small.011",
			"rotation":[
				0.09891804307699203,
				0.2177991420030594,
				-0.8932963013648987,
				0.3805268704891205
			],
			"scale":[
				1.9084025621414185,
				1.908402442932129,
				1.9084028005599976
			],
			"translation":[
				46.45504379272461,
				6.036807060241699,
				-31.962051391601562
			]
		},
		{
			"mesh":42,
			"name":"Roca_F2_Small.012",
			"rotation":[
				-0.03981894999742508,
				0.4111362397670746,
				0.27342310547828674,
				0.8686894178390503
			],
			"scale":[
				0.959584653377533,
				0.959584653377533,
				0.9595844149589539
			],
			"translation":[
				47.91147232055664,
				6.830022811889648,
				-32.59395980834961
			]
		},
		{
			"mesh":42,
			"name":"Roca_F2_Small.013",
			"rotation":[
				0.6231783628463745,
				0.04631632938981056,
				0.7265469431877136,
				0.2857150435447693
			],
			"scale":[
				0.9595844745635986,
				0.9595844745635986,
				0.959584653377533
			],
			"translation":[
				55.606040954589844,
				7.196050643920898,
				-35.002418518066406
			]
		},
		{
			"mesh":41,
			"name":"Roca_F2_Big.014",
			"rotation":[
				-0.04072768986225128,
				-0.16861006617546082,
				-0.10212496668100357,
				0.9795318245887756
			],
			"scale":[
				1.908402442932129,
				1.9084025621414185,
				1.9084025621414185
			],
			"translation":[
				50.067420959472656,
				19.582292556762695,
				-41.63465118408203
			]
		},
		{
			"mesh":41,
			"name":"Roca_F2_Big.015",
			"rotation":[
				-0.271574467420578,
				-0.8384456634521484,
				-0.09940461069345474,
				0.4619251787662506
			],
			"scale":[
				1.6516109704971313,
				1.6516109704971313,
				1.6516107320785522
			],
			"translation":[
				54.53522872924805,
				10.710299491882324,
				-41.885765075683594
			]
		},
		{
			"mesh":42,
			"name":"Roca_F2_Small.014",
			"rotation":[
				0.06102418527007103,
				-0.97005695104599,
				0.0014988664770498872,
				0.2350819706916809
			],
			"scale":[
				0.9595845937728882,
				0.959584653377533,
				0.9595844745635986
			],
			"translation":[
				46.85203170776367,
				11.754514694213867,
				-36.22415542602539
			]
		},
		{
			"mesh":41,
			"name":"Roca_F2_Big.016",
			"rotation":[
				0.07961292564868927,
				0.06341300159692764,
				0.9802237153053284,
				0.16971154510974884
			],
			"scale":[
				1.9084025621414185,
				1.5154794454574585,
				1.908402681350708
			],
			"translation":[
				53.3247184753418,
				14.34860610961914,
				-42.730228424072266
			]
		},
		{
			"mesh":41,
			"name":"Roca_F2_Big.017",
			"rotation":[
				0.05869892239570618,
				0.27090707421302795,
				0.12423882633447647,
				0.9527478814125061
			],
			"scale":[
				1.9084025621414185,
				1.9084025621414185,
				1.908402919769287
			],
			"translation":[
				46.507362365722656,
				10.509659767150879,
				-38.17105484008789
			]
		},
		{
			"mesh":41,
			"name":"Roca_F2_Big.018",
			"rotation":[
				-0.033127523958683014,
				0.2752067446708679,
				-0.19418369233608246,
				0.9409869909286499
			],
			"scale":[
				1.9084023237228394,
				1.908402919769287,
				1.9084030389785767
			],
			"translation":[
				50.22076416015625,
				10.863914489746094,
				-39.99232482910156
			]
		},
		{
			"mesh":42,
			"name":"Roca_F2_Small.015",
			"rotation":[
				-0.3056480288505554,
				-0.06660932302474976,
				-0.9324171543121338,
				0.18094402551651
			],
			"scale":[
				1.5459479093551636,
				1.5459481477737427,
				1.5459481477737427
			],
			"translation":[
				48.39167404174805,
				16.24669647216797,
				-38.30955123901367
			]
		},
		{
			"mesh":41,
			"name":"Roca_F2_Big.019",
			"rotation":[
				-0.21513928472995758,
				-0.5581297874450684,
				-0.452576607465744,
				0.6613475680351257
			],
			"scale":[
				1.1640427112579346,
				1.6216987371444702,
				1.2524937391281128
			],
			"translation":[
				57.09111785888672,
				7.8974199295043945,
				13.147024154663086
			]
		},
		{
			"mesh":42,
			"name":"Roca_F2_Small.016",
			"rotation":[
				0.42189690470695496,
				-0.01361194159835577,
				-0.8156352043151855,
				0.39567282795906067
			],
			"scale":[
				1.3288112878799438,
				1.908402681350708,
				1.3288112878799438
			],
			"translation":[
				47.55690002441406,
				5.516650199890137,
				6.9079132080078125
			]
		},
		{
			"mesh":41,
			"name":"Roca_F2_Big.020",
			"rotation":[
				-0.4902334213256836,
				0.8388696908950806,
				-0.022026080638170242,
				0.23554985225200653
			],
			"scale":[
				1.222001552581787,
				1.908402442932129,
				1.2676870822906494
			],
			"translation":[
				45.98255157470703,
				8.225309371948242,
				10.244068145751953
			]
		},
		{
			"mesh":42,
			"name":"Roca_F2_Small.017",
			"rotation":[
				0.8331248164176941,
				-0.42529091238975525,
				0.33714374899864197,
				0.10660584270954132
			],
			"scale":[
				1.464871883392334,
				1.908402681350708,
				1.464872121810913
			],
			"translation":[
				57.32121658325195,
				6.036807060241699,
				9.948230743408203
			]
		},
		{
			"mesh":42,
			"name":"Roca_F2_Small.018",
			"rotation":[
				-0.252421498298645,
				-0.9475704431533813,
				-0.11237942427396774,
				0.16051341593265533
			],
			"scale":[
				0.9595844149589539,
				0.959584653377533,
				0.9595844149589539
			],
			"translation":[
				55.74894714355469,
				6.830022811889648,
				9.728052139282227
			]
		},
		{
			"mesh":42,
			"name":"Roca_F2_Small.019",
			"rotation":[
				0.8681650757789612,
				0.28758126497268677,
				-0.40312662720680237,
				0.03279188647866249
			],
			"scale":[
				0.9595845341682434,
				0.9595844745635986,
				0.9595844745635986
			],
			"translation":[
				48.69523239135742,
				6.327409267425537,
				7.621006011962891
			]
		},
		{
			"mesh":41,
			"name":"Roca_F2_Big.021",
			"rotation":[
				-0.1093384325504303,
				0.897263765335083,
				0.011548233218491077,
				0.4275858700275421
			],
			"scale":[
				1.3115582466125488,
				1.908402681350708,
				1.3115583658218384
			],
			"translation":[
				49.930023193359375,
				15.580413818359375,
				16.166074752807617
			]
		},
		{
			"mesh":41,
			"name":"Roca_F2_Big.022",
			"rotation":[
				-0.16923773288726807,
				0.2175954133272171,
				0.2345050573348999,
				0.9322115778923035
			],
			"scale":[
				1.3216067552566528,
				1.6516107320785522,
				1.3216068744659424
			],
			"translation":[
				46.089088439941406,
				10.277207374572754,
				13.880220413208008
			]
		},
		{
			"mesh":42,
			"name":"Roca_F2_Small.020",
			"rotation":[
				0.04745572805404663,
				-0.02374652400612831,
				-0.22362464666366577,
				0.9732298254966736
			],
			"scale":[
				0.9595845341682434,
				0.9595845937728882,
				0.959584653377533
			],
			"translation":[
				55.671669006347656,
				9.29887866973877,
				13.386831283569336
			]
		},
		{
			"mesh":41,
			"name":"Roca_F2_Big.023",
			"rotation":[
				-0.9651536345481873,
				-0.1805429756641388,
				-0.18882639706134796,
				0.015081976540386677
			],
			"scale":[
				1.463712453842163,
				1.5154794454574585,
				1.4637128114700317
			],
			"translation":[
				45.84471130371094,
				14.34860610961914,
				15.555000305175781
			]
		},
		{
			"mesh":41,
			"name":"Roca_F2_Big.024",
			"rotation":[
				-0.13549284636974335,
				-0.9905107617378235,
				0.022859016433358192,
				0.0027603753842413425
			],
			"scale":[
				1.3943079710006714,
				1.908402442932129,
				1.3943077325820923
			],
			"translation":[
				54.03921127319336,
				10.509659767150879,
				15.219171524047852
			]
		},
		{
			"mesh":41,
			"name":"Roca_F2_Big.025",
			"rotation":[
				0.19589863717556,
				-0.9803537726402283,
				0.020699234679341316,
				0.010084424167871475
			],
			"scale":[
				1.6515858173370361,
				1.908402681350708,
				1.6515860557556152
			],
			"translation":[
				49.9208984375,
				10.863914489746094,
				14.837118148803711
			]
		},
		{
			"mesh":42,
			"name":"Roca_F2_Small.021",
			"rotation":[
				-0.9957304000854492,
				-0.06214900687336922,
				0.02918236516416073,
				0.06169964745640755
			],
			"scale":[
				1.426788091659546,
				1.5459479093551636,
				1.4267879724502563
			],
			"translation":[
				51.83506774902344,
				14.88572883605957,
				13.56745719909668
			]
		},
		{
			"mesh":41,
			"name":"Roca_F2_Big.026",
			"rotation":[
				0.020388998091220856,
				-0.8777257204055786,
				-0.12096431106328964,
				0.46319490671157837
			],
			"scale":[
				1.908402442932129,
				1.908402919769287,
				1.9084028005599976
			],
			"translation":[
				82.95539855957031,
				12.420268058776855,
				-17.752155303955078
			]
		},
		{
			"mesh":41,
			"name":"Roca_F2_Big.027",
			"rotation":[
				0.8520507216453552,
				0.000988747924566269,
				0.5195873379707336,
				0.06354374438524246
			],
			"scale":[
				1.9084025621414185,
				1.908402681350708,
				1.908402681350708
			],
			"translation":[
				82.2094955444336,
				10.547351837158203,
				-7.424880027770996
			]
		},
		{
			"mesh":41,
			"name":"Roca_F2_Big.028",
			"rotation":[
				-0.03269738703966141,
				-0.9912666082382202,
				-0.1182326152920723,
				0.048398688435554504
			],
			"scale":[
				1.908402681350708,
				1.908402681350708,
				1.908402681350708
			],
			"translation":[
				83.20234680175781,
				11.968406677246094,
				-15.27791976928711
			]
		},
		{
			"mesh":41,
			"name":"Roca_F2_Big.029",
			"rotation":[
				-0.005975724663585424,
				-0.5164847373962402,
				-0.09187521785497665,
				0.8513324856758118
			],
			"scale":[
				1.908402442932129,
				1.908402681350708,
				1.9084025621414185
			],
			"translation":[
				83.81153869628906,
				14.87718391418457,
				-11.498557090759277
			]
		},
		{
			"mesh":41,
			"name":"Roca_F2_Big.030",
			"rotation":[
				0.9847561717033386,
				-0.10234720259904861,
				0.13741353154182434,
				0.02996734529733658
			],
			"scale":[
				1.9084025621414185,
				1.9084025621414185,
				1.9084025621414185
			],
			"translation":[
				83.54556274414062,
				10.579668045043945,
				-20.547786712646484
			]
		},
		{
			"mesh":41,
			"name":"Roca_F2_Big.031",
			"rotation":[
				-0.15365692973136902,
				-0.5030452013015747,
				-0.0038706243503838778,
				0.8504822850227356
			],
			"scale":[
				1.9084028005599976,
				1.9084022045135498,
				1.908402681350708
			],
			"translation":[
				83.53144073486328,
				9.814654350280762,
				-4.126409530639648
			]
		},
		{
			"mesh":41,
			"name":"Roca_F2_Big.032",
			"rotation":[
				-0.08113957196474075,
				0.43456482887268066,
				-0.1305442750453949,
				0.8874278664588928
			],
			"scale":[
				1.908402681350708,
				1.9084022045135498,
				1.908402681350708
			],
			"translation":[
				84.39826965332031,
				11.9446439743042,
				-1.4183146953582764
			]
		},
		{
			"mesh":42,
			"name":"Roca_F2_Small.022",
			"rotation":[
				0.09777224063873291,
				-0.19266274571418762,
				0.9316995739936829,
				0.291989266872406
			],
			"scale":[
				1.4411340951919556,
				1.4411342144012451,
				1.4411340951919556
			],
			"translation":[
				83.37354278564453,
				12.78752613067627,
				-24.349830627441406
			]
		},
		{
			"mesh":41,
			"name":"Roca_F2_Big.033",
			"rotation":[
				0.1338728368282318,
				0.9779922962188721,
				-0.08202103525400162,
				0.13741089403629303
			],
			"scale":[
				1.908402442932129,
				1.908402681350708,
				1.908402681350708
			],
			"translation":[
				70.52986907958984,
				12.597174644470215,
				10.433582305908203
			]
		},
		{
			"mesh":41,
			"name":"Roca_F2_Big.034",
			"rotation":[
				-0.9665859341621399,
				-0.16155239939689636,
				0.17324739694595337,
				0.09796860069036484
			],
			"scale":[
				1.908402681350708,
				1.908402681350708,
				1.908402681350708
			],
			"translation":[
				60.93732833862305,
				12.347932815551758,
				12.610824584960938
			]
		},
		{
			"mesh":41,
			"name":"Roca_F2_Big.035",
			"rotation":[
				0.04415392503142357,
				0.8348444104194641,
				-0.05071752518415451,
				0.5463634133338928
			],
			"scale":[
				1.9084028005599976,
				1.908402681350708,
				1.908402681350708
			],
			"translation":[
				68.04463195800781,
				16.20274543762207,
				11.308856964111328
			]
		},
		{
			"mesh":41,
			"name":"Roca_F2_Big.036",
			"rotation":[
				0.04519218951463699,
				0.7667819261550903,
				0.08021489530801773,
				0.6352705955505371
			],
			"scale":[
				1.908402442932129,
				1.908402681350708,
				1.908402681350708
			],
			"translation":[
				64.81272888183594,
				15.05408763885498,
				13.108463287353516
			]
		},
		{
			"mesh":41,
			"name":"Roca_F2_Big.037",
			"rotation":[
				0.9862224459648132,
				-0.1338634043931961,
				0.01525004394352436,
				0.0959860235452652
			],
			"scale":[
				1.9084025621414185,
				1.9084022045135498,
				1.908402919769287
			],
			"translation":[
				73.3746109008789,
				10.756573677062988,
				10.166790008544922
			]
		},
		{
			"mesh":41,
			"name":"Roca_F2_Big.038",
			"rotation":[
				0.05379520729184151,
				-0.9092599153518677,
				-0.11087668687105179,
				0.39756613969802856
			],
			"scale":[
				1.9084025621414185,
				1.9084025621414185,
				1.908402681350708
			],
			"translation":[
				57.69003677368164,
				9.991559982299805,
				15.030593872070312
			]
		},
		{
			"mesh":41,
			"name":"Roca_F2_Big.039",
			"rotation":[
				-0.05534415692090988,
				-0.4318307638168335,
				-0.1094764843583107,
				0.8935738205909729
			],
			"scale":[
				1.908402442932129,
				1.908402919769287,
				1.908402442932129
			],
			"translation":[
				62.20849609375,
				12.420268058776855,
				-37.49777603149414
			]
		},
		{
			"mesh":41,
			"name":"Roca_F2_Big.040",
			"rotation":[
				0.9956629276275635,
				-0.07006192952394485,
				-0.06061679497361183,
				0.00850267056375742
			],
			"scale":[
				1.9084022045135498,
				1.9084028005599976,
				1.908402681350708
			],
			"translation":[
				71.73770141601562,
				10.924860000610352,
				-35.163543701171875
			]
		},
		{
			"mesh":41,
			"name":"Roca_F2_Big.041",
			"rotation":[
				-0.09646046161651611,
				-0.7693005800247192,
				-0.0757855698466301,
				0.6269997954368591
			],
			"scale":[
				1.9084025621414185,
				1.908402681350708,
				1.9084028005599976
			],
			"translation":[
				64.64485931396484,
				11.968406677246094,
				-37.000789642333984
			]
		},
		{
			"mesh":41,
			"name":"Roca_F2_Big.042",
			"rotation":[
				-0.059312693774700165,
				0.08923326432704926,
				-0.07041851431131363,
				0.9917463064193726
			],
			"scale":[
				1.908402681350708,
				1.908402681350708,
				1.908402681350708
			],
			"translation":[
				68.53521728515625,
				16.585407257080078,
				-36.802181243896484
			]
		},
		{
			"mesh":41,
			"name":"Roca_F2_Big.043",
			"rotation":[
				0.02641098015010357,
				0.2933295667171478,
				0.10612944513559341,
				0.9497351050376892
			],
			"scale":[
				1.9084030389785767,
				1.9084028005599976,
				1.908402681350708
			],
			"translation":[
				35.00100326538086,
				13.271970748901367,
				-23.093093872070312
			]
		},
		{
			"mesh":41,
			"name":"Roca_F2_Big.044",
			"rotation":[
				0.18401843309402466,
				0.06445252895355225,
				0.9803857207298279,
				0.028755856677889824
			],
			"scale":[
				1.908402442932129,
				1.9084025621414185,
				1.9084025621414185
			],
			"translation":[
				40.98455047607422,
				11.776559829711914,
				-30.8681640625
			]
		},
		{
			"mesh":41,
			"name":"Roca_F2_Big.045",
			"rotation":[
				-0.12219173461198807,
				-0.30219411849975586,
				-0.010828183963894844,
				0.9453204274177551
			],
			"scale":[
				1.9084025621414185,
				1.908402681350708,
				1.9084025621414185
			],
			"translation":[
				36.43952178955078,
				12.820106506347656,
				-25.12127685546875
			]
		},
		{
			"mesh":41,
			"name":"Roca_F2_Big.046",
			"rotation":[
				-0.03215750679373741,
				-0.7414501309394836,
				0.08627084642648697,
				0.6646615266799927
			],
			"scale":[
				1.9084028005599976,
				1.908402681350708,
				1.908402442932129
			],
			"translation":[
				38.192230224609375,
				17.437108993530273,
				-28.600120544433594
			]
		},
		{
			"mesh":41,
			"name":"Roca_F2_Big.047",
			"rotation":[
				-0.07370409369468689,
				0.7582427859306335,
				0.046422988176345825,
				0.6461272835731506
			],
			"scale":[
				1.9084028005599976,
				1.9084028005599976,
				1.9084025621414185
			],
			"translation":[
				40.09772491455078,
				13.576615333557129,
				5.677629470825195
			]
		},
		{
			"mesh":41,
			"name":"Roca_F2_Big.048",
			"rotation":[
				0.6408649682998657,
				0.32601791620254517,
				0.6949121952056885,
				0.010071991942822933
			],
			"scale":[
				1.9084025621414185,
				1.908402681350708,
				1.9084025621414185
			],
			"translation":[
				36.158294677734375,
				13.194894790649414,
				-2.595855474472046
			]
		},
		{
			"mesh":41,
			"name":"Roca_F2_Big.049",
			"rotation":[
				0.10600866377353668,
				0.24394851922988892,
				-0.04085604473948479,
				0.963110625743866
			],
			"scale":[
				1.908402919769287,
				1.908402681350708,
				1.908402681350708
			],
			"translation":[
				38.130218505859375,
				12.491037368774414,
				2.4965927600860596
			]
		},
		{
			"mesh":41,
			"name":"Roca_F2_Big.050",
			"rotation":[
				0.15350545942783356,
				-0.2877287268638611,
				-0.10224748402833939,
				0.9397838711738586
			],
			"scale":[
				1.908402681350708,
				1.9084025621414185,
				1.9084025621414185
			],
			"translation":[
				37.34095764160156,
				18.375469207763672,
				1.3823530673980713
			]
		},
		{
			"mesh":41,
			"name":"Roca_F2_Big.051",
			"rotation":[
				0.0004052703152410686,
				0.9974773526191711,
				0.06602068245410919,
				0.026078427210450172
			],
			"scale":[
				1.908402681350708,
				1.9084028005599976,
				1.9084025621414185
			],
			"translation":[
				39.90934753417969,
				11.625144004821777,
				10.352455139160156
			]
		},
		{
			"mesh":41,
			"name":"Roca_F2_Big.052",
			"rotation":[
				-0.47749650478363037,
				-0.16436560451984406,
				0.8576507568359375,
				0.09703721851110458
			],
			"scale":[
				1.9084025621414185,
				1.908402442932129,
				1.908402681350708
			],
			"translation":[
				42.079833984375,
				14.070551872253418,
				14.299762725830078
			]
		}
	],
	"materials":[
		{
			"doubleSided":true,
			"name":"contrafuerte",
			"normalTexture":{
				"index":0
			},
			"pbrMetallicRoughness":{
				"baseColorTexture":{
					"index":1
				},
				"metallicRoughnessTexture":{
					"index":2
				}
			}
		},
		{
			"doubleSided":true,
			"name":"Material.007",
			"normalTexture":{
				"index":3
			},
			"pbrMetallicRoughness":{
				"baseColorTexture":{
					"index":4
				},
				"metallicRoughnessTexture":{
					"index":5
				}
			}
		},
		{
			"doubleSided":true,
			"name":"Material.008",
			"normalTexture":{
				"index":6,
				"scale":1.8999998569488525
			},
			"pbrMetallicRoughness":{
				"baseColorTexture":{
					"index":7
				},
				"metallicFactor":0
			}
		}
	],
	"meshes":[
		{
			"name":"Character_init",
			"primitives":[
				{
					"attributes":{
						"POSITION":0,
						"NORMAL":1,
						"TEXCOORD_0":2
					},
					"indices":3
				}
			]
		},
		{
			"name":"Cube.046",
			"primitives":[
				{
					"attributes":{
						"POSITION":4,
						"NORMAL":5,
						"TEXCOORD_0":6
					},
					"indices":7
				}
			]
		},
		{
			"name":"Cube.047",
			"primitives":[
				{
					"attributes":{
						"POSITION":8,
						"NORMAL":9,
						"TEXCOORD_0":10
					},
					"indices":11
				}
			]
		},
		{
			"name":"Cube.048",
			"primitives":[
				{
					"attributes":{
						"POSITION":12,
						"NORMAL":13,
						"TEXCOORD_0":14
					},
					"indices":15
				}
			]
		},
		{
			"name":"Cube.049",
			"primitives":[
				{
					"attributes":{
						"POSITION":16,
						"NORMAL":17,
						"TEXCOORD_0":18
					},
					"indices":11
				}
			]
		},
		{
			"name":"Cube.050",
			"primitives":[
				{
					"attributes":{
						"POSITION":19,
						"NORMAL":20,
						"TEXCOORD_0":21
					},
					"indices":15
				}
			]
		},
		{
			"name":"Cube.051",
			"primitives":[
				{
					"attributes":{
						"POSITION":22,
						"NORMAL":23,
						"TEXCOORD_0":24
					},
					"indices":11
				}
			]
		},
		{
			"name":"Cube.052",
			"primitives":[
				{
					"attributes":{
						"POSITION":25,
						"NORMAL":26,
						"TEXCOORD_0":27
					},
					"indices":15
				}
			]
		},
		{
			"name":"Cube.053",
			"primitives":[
				{
					"attributes":{
						"POSITION":28,
						"NORMAL":29,
						"TEXCOORD_0":30
					},
					"indices":11
				}
			]
		},
		{
			"name":"Cube.054",
			"primitives":[
				{
					"attributes":{
						"POSITION":31,
						"NORMAL":32,
						"TEXCOORD_0":33
					},
					"indices":15
				}
			]
		},
		{
			"name":"Cube.029",
			"primitives":[
				{
					"attributes":{
						"POSITION":34,
						"NORMAL":35,
						"TEXCOORD_0":36
					},
					"indices":37
				}
			]
		},
		{
			"name":"Cube.030",
			"primitives":[
				{
					"attributes":{
						"POSITION":38,
						"NORMAL":39,
						"TEXCOORD_0":40
					},
					"indices":41
				}
			]
		},
		{
			"name":"Cube.031",
			"primitives":[
				{
					"attributes":{
						"POSITION":42,
						"NORMAL":43,
						"TEXCOORD_0":44
					},
					"indices":45
				}
			]
		},
		{
			"name":"Cube.033",
			"primitives":[
				{
					"attributes":{
						"POSITION":46,
						"NORMAL":47,
						"TEXCOORD_0":48
					},
					"indices":49
				}
			]
		},
		{
			"name":"Cube.034",
			"primitives":[
				{
					"attributes":{
						"POSITION":50,
						"NORMAL":51,
						"TEXCOORD_0":52
					},
					"indices":53
				}
			]
		},
		{
			"name":"Cube.035",
			"primitives":[
				{
					"attributes":{
						"POSITION":54,
						"NORMAL":55,
						"TEXCOORD_0":56
					},
					"indices":57
				}
			]
		},
		{
			"name":"Cube.036",
			"primitives":[
				{
					"attributes":{
						"POSITION":58,
						"NORMAL":59,
						"TEXCOORD_0":60
					},
					"indices":57
				}
			]
		},
		{
			"name":"Cube.037",
			"primitives":[
				{
					"attributes":{
						"POSITION":61,
						"NORMAL":62,
						"TEXCOORD_0":63
					},
					"indices":64
				}
			]
		},
		{
			"name":"Cube.038",
			"primitives":[
				{
					"attributes":{
						"POSITION":65,
						"NORMAL":66,
						"TEXCOORD_0":67
					},
					"indices":57
				}
			]
		},
		{
			"name":"Cube.039",
			"primitives":[
				{
					"attributes":{
						"POSITION":68,
						"NORMAL":69,
						"TEXCOORD_0":70
					},
					"indices":57
				}
			]
		},
		{
			"name":"Cube.040",
			"primitives":[
				{
					"attributes":{
						"POSITION":71,
						"NORMAL":72,
						"TEXCOORD_0":73
					},
					"indices":74
				}
			]
		},
		{
			"name":"Cube.041",
			"primitives":[
				{
					"attributes":{
						"POSITION":75,
						"NORMAL":76,
						"TEXCOORD_0":77
					},
					"indices":57
				}
			]
		},
		{
			"name":"Cube.042",
			"primitives":[
				{
					"attributes":{
						"POSITION":78,
						"NORMAL":79,
						"TEXCOORD_0":80
					},
					"indices":57
				}
			]
		},
		{
			"name":"Cube.043",
			"primitives":[
				{
					"attributes":{
						"POSITION":81,
						"NORMAL":82,
						"TEXCOORD_0":83
					},
					"indices":84
				}
			]
		},
		{
			"name":"Cube.044",
			"primitives":[
				{
					"attributes":{
						"POSITION":85,
						"NORMAL":86,
						"TEXCOORD_0":87
					},
					"indices":57
				}
			]
		},
		{
			"name":"Cube.045",
			"primitives":[
				{
					"attributes":{
						"POSITION":88,
						"NORMAL":89,
						"TEXCOORD_0":90
					},
					"indices":57
				}
			]
		},
		{
			"name":"Cylinder",
			"primitives":[
				{
					"attributes":{
						"POSITION":91,
						"NORMAL":92,
						"TEXCOORD_0":93
					},
					"indices":94
				}
			]
		},
		{
			"name":"Cube.032",
			"primitives":[
				{
					"attributes":{
						"POSITION":95,
						"NORMAL":96,
						"TEXCOORD_0":97
					},
					"indices":98
				}
			]
		},
		{
			"name":"Cube.008",
			"primitives":[
				{
					"attributes":{
						"POSITION":99,
						"NORMAL":100,
						"TEXCOORD_0":101
					},
					"indices":102,
					"material":0
				}
			]
		},
		{
			"name":"Cube.008",
			"primitives":[
				{
					"attributes":{
						"POSITION":103,
						"NORMAL":104,
						"TEXCOORD_0":105
					},
					"indices":102,
					"material":0
				}
			]
		},
		{
			"name":"Cube.008",
			"primitives":[
				{
					"attributes":{
						"POSITION":106,
						"NORMAL":107,
						"TEXCOORD_0":108
					},
					"indices":102,
					"material":0
				}
			]
		},
		{
			"name":"Cube.008",
			"primitives":[
				{
					"attributes":{
						"POSITION":109,
						"NORMAL":110,
						"TEXCOORD_0":111
					},
					"indices":102,
					"material":0
				}
			]
		},
		{
			"name":"Cube.008",
			"primitives":[
				{
					"attributes":{
						"POSITION":112,
						"NORMAL":113,
						"TEXCOORD_0":114
					},
					"indices":102,
					"material":0
				}
			]
		},
		{
			"name":"Cube.008",
			"primitives":[
				{
					"attributes":{
						"POSITION":115,
						"NORMAL":116,
						"TEXCOORD_0":117
					},
					"indices":102,
					"material":0
				}
			]
		},
		{
			"name":"Cube.008",
			"primitives":[
				{
					"attributes":{
						"POSITION":118,
						"NORMAL":119,
						"TEXCOORD_0":120
					},
					"indices":102,
					"material":0
				}
			]
		},
		{
			"name":"Cube.008",
			"primitives":[
				{
					"attributes":{
						"POSITION":121,
						"NORMAL":122,
						"TEXCOORD_0":123
					},
					"indices":102,
					"material":0
				}
			]
		},
		{
			"name":"Cube.008",
			"primitives":[
				{
					"attributes":{
						"POSITION":124,
						"NORMAL":125,
						"TEXCOORD_0":126
					},
					"indices":102,
					"material":0
				}
			]
		},
		{
			"name":"Cube.008",
			"primitives":[
				{
					"attributes":{
						"POSITION":127,
						"NORMAL":128,
						"TEXCOORD_0":129
					},
					"indices":102,
					"material":0
				}
			]
		},
		{
			"name":"Cube.008",
			"primitives":[
				{
					"attributes":{
						"POSITION":130,
						"NORMAL":131,
						"TEXCOORD_0":132
					},
					"indices":102,
					"material":0
				}
			]
		},
		{
			"name":"Cube.008",
			"primitives":[
				{
					"attributes":{
						"POSITION":133,
						"NORMAL":134,
						"TEXCOORD_0":135
					},
					"indices":102,
					"material":0
				}
			]
		},
		{
			"name":"Cube.055",
			"primitives":[
				{
					"attributes":{
						"POSITION":136,
						"NORMAL":137,
						"TEXCOORD_0":138
					},
					"indices":139,
					"material":1
				}
			]
		},
		{
			"name":"Cube.058",
			"primitives":[
				{
					"attributes":{
						"POSITION":140,
						"NORMAL":141,
						"TEXCOORD_0":142
					},
					"indices":143,
					"material":2
				}
			]
		},
		{
			"name":"Cube.059",
			"primitives":[
				{
					"attributes":{
						"POSITION":144,
						"NORMAL":145,
						"TEXCOORD_0":146
					},
					"indices":147,
					"material":2
				}
			]
		}
	],
	"textures":[
		{
			"extensions":{
				"EXT_texture_webp":{
					"source":0
				}
			},
			"sampler":0
		},
		{
			"extensions":{
				"EXT_texture_webp":{
					"source":1
				}
			},
			"sampler":0
		},
		{
			"extensions":{
				"EXT_texture_webp":{
					"source":2
				}
			},
			"sampler":0
		},
		{
			"extensions":{
				"EXT_texture_webp":{
					"source":3
				}
			},
			"sampler":0
		},
		{
			"extensions":{
				"EXT_texture_webp":{
					"source":4
				}
			},
			"sampler":0
		},
		{
			"extensions":{
				"EXT_texture_webp":{
					"source":5
				}
			},
			"sampler":0
		},
		{
			"extensions":{
				"EXT_texture_webp":{
					"source":6
				}
			},
			"sampler":0
		},
		{
			"extensions":{
				"EXT_texture_webp":{
					"source":7
				}
			},
			"sampler":0
		}
	],
	"images":[
		{
			"mimeType":"image/webp",
			"name":"contrafuerte normalMIX",
			"uri":"contrafuerte%20normalMIX.webp"
		},
		{
			"mimeType":"image/webp",
			"name":"contrafuerte_DefaultMaterial_BaseColor",
			"uri":"contrafuerte_DefaultMaterial_BaseColor.webp"
		},
		{
			"mimeType":"image/webp",
			"name":"contrafuerte_DefaultMaterial_Metallic-contrafuerte_DefaultMaterial_Roughness",
			"uri":"contrafuerte_DefaultMaterial_Metallic-contrafuerte_DefaultMaterial_Roughness.webp"
		},
		{
			"mimeType":"image/webp",
			"name":"estatua normalmap",
			"uri":"estatua%20normalmap.webp"
		},
		{
			"mimeType":"image/webp",
			"name":"estatua_Material_BaseColor",
			"uri":"estatua_Material_BaseColor.webp"
		},
		{
			"mimeType":"image/webp",
			"name":"estatua_Material_Metallic-estatua_Material_Roughness",
			"uri":"estatua_Material_Metallic-estatua_Material_Roughness.webp"
		},
		{
			"mimeType":"image/webp",
			"name":"rocas normalmap",
			"uri":"rocas%20normalmap.webp"
		},
		{
			"mimeType":"image/webp",
			"name":"Rock051_2K-JPG_Color",
			"uri":"Rock051_2K-JPG_Color.webp"
		}
	],
	"accessors":[
		{
			"bufferView":0,
			"componentType":5126,
			"count":24,
			"max":[
				1,
				1.0000004768371582,
				0.9999990463256836
			],
			"min":[
				-1,
				-0.9999995231628418,
				-1.0000009536743164
			],
			"type":"VEC3"
		},
		{
			"bufferView":1,
			"componentType":5126,
			"count":24,
			"type":"VEC3"
		},
		{
			"bufferView":2,
			"componentType":5126,
			"count":24,
			"type":"VEC2"
		},
		{
			"bufferView":3,
			"componentType":5123,
			"count":36,
			"type":"SCALAR"
		},
		{
			"bufferView":4,
			"componentType":5126,
			"count":111,
			"max":[
				63.73101806640625,
				4.4044599533081055,
				-6.776622295379639
			],
			"min":[
				29.31317138671875,
				4.370290279388428,
				-18.689594268798828
			],
			"type":"VEC3"
		},
		{
			"bufferView":5,
			"componentType":5126,
			"count":111,
			"type":"VEC3"
		},
		{
			"bufferView":6,
			"componentType":5126,
			"count":111,
			"type":"VEC2"
		},
		{
			"bufferView":7,
			"componentType":5123,
			"count":327,
			"type":"SCALAR"
		},
		{
			"bufferView":8,
			"componentType":5126,
			"count":12,
			"max":[
				58.14188003540039,
				7.208366394042969,
				-1.924102783203125
			],
			"min":[
				54.47802734375,
				4.38997745513916,
				-7.719820022583008
			],
			"type":"VEC3"
		},
		{
			"bufferView":9,
			"componentType":5126,
			"count":12,
			"type":"VEC3"
		},
		{
			"bufferView":10,
			"componentType":5126,
			"count":12,
			"type":"VEC2"
		},
		{
			"bufferView":11,
			"componentType":5123,
			"count":24,
			"type":"SCALAR"
		},
		{
			"bufferView":12,
			"componentType":5126,
			"count":164,
			"max":[
				57.481693267822266,
				7.2196550369262695,
				11.927360534667969
			],
			"min":[
				49.55105209350586,
				7.1412811279296875,
				-3.0779953002929688
			],
			"type":"VEC3"
		},
		{
			"bufferView":13,
			"componentType":5126,
			"count":164,
			"type":"VEC3"
		},
		{
			"bufferView":14,
			"componentType":5126,
			"count":164,
			"type":"VEC2"
		},
		{
			"bufferView":15,
			"componentType":5123,
			"count":462,
			"type":"SCALAR"
		},
		{
			"bufferView":16,
			"componentType":5126,
			"count":12,
			"max":[
				67.31946563720703,
				7.208366394042969,
				-5.139993667602539
			],
			"min":[
				61.75395965576172,
				4.38997745513916,
				-10.305614471435547
			],
			"type":"VEC3"
		},
		{
			"bufferView":17,
			"componentType":5126,
			"count":12,
			"type":"VEC3"
		},
		{
			"bufferView":18,
			"componentType":5126,
			"count":12,
			"type":"VEC2"
		},
		{
			"bufferView":19,
			"componentType":5126,
			"count":164,
			"max":[
				78.74758911132812,
				7.2196550369262695,
				4.129497528076172
			],
			"min":[
				65.612060546875,
				7.1412811279296875,
				-7.3730926513671875
			],
			"type":"VEC3"
		},
		{
			"bufferView":20,
			"componentType":5126,
			"count":164,
			"type":"VEC3"
		},
		{
			"bufferView":21,
			"componentType":5126,
			"count":164,
			"type":"VEC2"
		},
		{
			"bufferView":22,
			"componentType":5126,
			"count":12,
			"max":[
				67.31454467773438,
				7.208366394042969,
				-15.316442489624023
			],
			"min":[
				61.695228576660156,
				4.38997745513916,
				-20.43682098388672
			],
			"type":"VEC3"
		},
		{
			"bufferView":23,
			"componentType":5126,
			"count":12,
			"type":"VEC3"
		},
		{
			"bufferView":24,
			"componentType":5126,
			"count":12,
			"type":"VEC2"
		},
		{
			"bufferView":25,
			"componentType":5126,
			"count":164,
			"max":[
				78.3996353149414,
				7.2196550369262695,
				-18.385101318359375
			],
			"min":[
				65.44644927978516,
				7.1412811279296875,
				-30.134136199951172
			],
			"type":"VEC3"
		},
		{
			"bufferView":26,
			"componentType":5126,
			"count":164,
			"type":"VEC3"
		},
		{
			"bufferView":27,
			"componentType":5126,
			"count":164,
			"type":"VEC2"
		},
		{
			"bufferView":28,
			"componentType":5126,
			"count":12,
			"max":[
				57.97298049926758,
				7.208366394042969,
				-17.625011444091797
			],
			"min":[
				54.355674743652344,
				4.38997745513916,
				-23.482221603393555
			],
			"type":"VEC3"
		},
		{
			"bufferView":29,
			"componentType":5126,
			"count":12,
			"type":"VEC3"
		},
		{
			"bufferView":30,
			"componentType":5126,
			"count":12,
			"type":"VEC2"
		},
		{
			"bufferView":31,
			"componentType":5126,
			"count":164,
			"max":[
				57.154930114746094,
				7.2196550369262695,
				-22.251163482666016
			],
			"min":[
				48.9817008972168,
				7.1412811279296875,
				-37.18254089355469
			],
			"type":"VEC3"
		},
		{
			"bufferView":32,
			"componentType":5126,
			"count":164,
			"type":"VEC3"
		},
		{
			"bufferView":33,
			"componentType":5126,
			"count":164,
			"type":"VEC2"
		},
		{
			"bufferView":34,
			"componentType":5126,
			"count":1186,
			"max":[
				58.009796142578125,
				7.2196550369262695,
				-17.587928771972656
			],
			"min":[
				48.97936248779297,
				-3.6023001670837402,
				-37.16394805908203
			],
			"type":"VEC3"
		},
		{
			"bufferView":35,
			"componentType":5126,
			"count":1186,
			"type":"VEC3"
		},
		{
			"bufferView":36,
			"componentType":5126,
			"count":1186,
			"type":"VEC2"
		},
		{
			"bufferView":37,
			"componentType":5123,
			"count":2910,
			"type":"SCALAR"
		},
		{
			"bufferView":38,
			"componentType":5126,
			"count":1186,
			"max":[
				78.32987213134766,
				7.2196550369262695,
				-15.258312225341797
			],
			"min":[
				61.66575622558594,
				-3.6023001670837402,
				-30.15127944946289
			],
			"type":"VEC3"
		},
		{
			"bufferView":39,
			"componentType":5126,
			"count":1186,
			"type":"VEC3"
		},
		{
			"bufferView":40,
			"componentType":5126,
			"count":1186,
			"type":"VEC2"
		},
		{
			"bufferView":41,
			"componentType":5123,
			"count":2910,
			"type":"SCALAR"
		},
		{
			"bufferView":42,
			"componentType":5126,
			"count":1186,
			"max":[
				78.80197143554688,
				7.2196550369262695,
				4.153343200683594
			],
			"min":[
				61.805824279785156,
				-3.6023001670837402,
				-10.304975509643555
			],
			"type":"VEC3"
		},
		{
			"bufferView":43,
			"componentType":5126,
			"count":1186,
			"type":"VEC3"
		},
		{
			"bufferView":44,
			"componentType":5126,
			"count":1186,
			"type":"VEC2"
		},
		{
			"bufferView":45,
			"componentType":5123,
			"count":2910,
			"type":"SCALAR"
		},
		{
			"bufferView":46,
			"componentType":5126,
			"count":82,
			"max":[
				52.90251922607422,
				4.4044599533081055,
				-10.67662239074707
			],
			"min":[
				29.31317138671875,
				0.8636360168457031,
				-14.556364059448242
			],
			"type":"VEC3"
		},
		{
			"bufferView":47,
			"componentType":5126,
			"count":82,
			"type":"VEC3"
		},
		{
			"bufferView":48,
			"componentType":5126,
			"count":82,
			"type":"VEC2"
		},
		{
			"bufferView":49,
			"componentType":5123,
			"count":192,
			"type":"SCALAR"
		},
		{
			"bufferView":50,
			"componentType":5126,
			"count":586,
			"max":[
				54.73332595825195,
				20.753387451171875,
				-33.421356201171875
			],
			"min":[
				47.3721923828125,
				-0.3991718292236328,
				-39.759971618652344
			],
			"type":"VEC3"
		},
		{
			"bufferView":51,
			"componentType":5126,
			"count":586,
			"type":"VEC3"
		},
		{
			"bufferView":52,
			"componentType":5126,
			"count":586,
			"type":"VEC2"
		},
		{
			"bufferView":53,
			"componentType":5123,
			"count":1356,
			"type":"SCALAR"
		},
		{
			"bufferView":54,
			"componentType":5126,
			"count":91,
			"max":[
				57.2315788269043,
				7.934662818908691,
				-22.892147064208984
			],
			"min":[
				54.013153076171875,
				7.167661666870117,
				-35.34918212890625
			],
			"type":"VEC3"
		},
		{
			"bufferView":55,
			"componentType":5126,
			"count":91,
			"type":"VEC3"
		},
		{
			"bufferView":56,
			"componentType":5126,
			"count":91,
			"type":"VEC2"
		},
		{
			"bufferView":57,
			"componentType":5123,
			"count":432,
			"type":"SCALAR"
		},
		{
			"bufferView":58,
			"componentType":5126,
			"count":91,
			"max":[
				54.36198806762695,
				7.934662818908691,
				-22.249404907226562
			],
			"min":[
				49.06511688232422,
				7.167661666870117,
				-33.82461166381836
			],
			"type":"VEC3"
		},
		{
			"bufferView":59,
			"componentType":5126,
			"count":91,
			"type":"VEC3"
		},
		{
			"bufferView":60,
			"componentType":5126,
			"count":91,
			"type":"VEC2"
		},
		{
			"bufferView":61,
			"componentType":5126,
			"count":586,
			"max":[
				80.81570434570312,
				20.753387451171875,
				-24.960681915283203
			],
			"min":[
				73.49470520019531,
				-0.3991718292236328,
				-32.538612365722656
			],
			"type":"VEC3"
		},
		{
			"bufferView":62,
			"componentType":5126,
			"count":586,
			"type":"VEC3"
		},
		{
			"bufferView":63,
			"componentType":5126,
			"count":586,
			"type":"VEC2"
		},
		{
			"bufferView":64,
			"componentType":5123,
			"count":1356,
			"type":"SCALAR"
		},
		{
			"bufferView":65,
			"componentType":5126,
			"count":91,
			"max":[
				77.46236419677734,
				7.934662818908691,
				-18.30301284790039
			],
			"min":[
				66.8441162109375,
				7.167661666870117,
				-25.62020492553711
			],
			"type":"VEC3"
		},
		{
			"bufferView":66,
			"componentType":5126,
			"count":91,
			"type":"VEC3"
		},
		{
			"bufferView":67,
			"componentType":5126,
			"count":91,
			"type":"VEC2"
		},
		{
			"bufferView":68,
			"componentType":5126,
			"count":91,
			"max":[
				74.10400390625,
				7.934662818908691,
				-20.161151885986328
			],
			"min":[
				65.35676574707031,
				7.167661666870117,
				-29.560935974121094
			],
			"type":"VEC3"
		},
		{
			"bufferView":69,
			"componentType":5126,
			"count":91,
			"type":"VEC3"
		},
		{
			"bufferView":70,
			"componentType":5126,
			"count":91,
			"type":"VEC2"
		},
		{
			"bufferView":71,
			"componentType":5126,
			"count":586,
			"max":[
				81.28333282470703,
				20.753387451171875,
				6.534756660461426
			],
			"min":[
				74.03536987304688,
				-0.3991718292236328,
				-1.0713956356048584
			],
			"type":"VEC3"
		},
		{
			"bufferView":72,
			"componentType":5126,
			"count":586,
			"type":"VEC3"
		},
		{
			"bufferView":73,
			"componentType":5126,
			"count":586,
			"type":"VEC2"
		},
		{
			"bufferView":74,
			"componentType":5123,
			"count":1356,
			"type":"SCALAR"
		},
		{
			"bufferView":75,
			"componentType":5126,
			"count":91,
			"max":[
				74.62808227539062,
				7.934662818908691,
				3.646230697631836
			],
			"min":[
				65.61825561523438,
				7.167661666870117,
				-5.48335075378418
			],
			"type":"VEC3"
		},
		{
			"bufferView":76,
			"componentType":5126,
			"count":91,
			"type":"VEC3"
		},
		{
			"bufferView":77,
			"componentType":5126,
			"count":91,
			"type":"VEC2"
		},
		{
			"bufferView":78,
			"componentType":5126,
			"count":91,
			"max":[
				77.86070251464844,
				7.934662818908691,
				-0.3982810974121094
			],
			"min":[
				67.03246307373047,
				7.167661666870117,
				-7.414684295654297
			],
			"type":"VEC3"
		},
		{
			"bufferView":79,
			"componentType":5126,
			"count":91,
			"type":"VEC3"
		},
		{
			"bufferView":80,
			"componentType":5126,
			"count":91,
			"type":"VEC2"
		},
		{
			"bufferView":81,
			"componentType":5126,
			"count":586,
			"max":[
				55.30311965942383,
				20.753387451171875,
				14.523218154907227
			],
			"min":[
				47.99509811401367,
				-0.3991718292236328,
				8.251516342163086
			],
			"type":"VEC3"
		},
		{
			"bufferView":82,
			"componentType":5126,
			"count":586,
			"type":"VEC3"
		},
		{
			"bufferView":83,
			"componentType":5126,
			"count":586,
			"type":"VEC2"
		},
		{
			"bufferView":84,
			"componentType":5123,
			"count":1356,
			"type":"SCALAR"
		},
		{
			"bufferView":85,
			"componentType":5126,
			"count":91,
			"max":[
				54.607425689697266,
				7.934662818908691,
				8.638101577758789
			],
			"min":[
				49.593055725097656,
				7.167661666870117,
				-3.0536842346191406
			],
			"type":"VEC3"
		},
		{
			"bufferView":86,
			"componentType":5126,
			"count":91,
			"type":"VEC3"
		},
		{
			"bufferView":87,
			"componentType":5126,
			"count":91,
			"type":"VEC2"
		},
		{
			"bufferView":88,
			"componentType":5126,
			"count":91,
			"max":[
				57.53522491455078,
				7.934662818908691,
				10.040401458740234
			],
			"min":[
				54.577117919921875,
				7.167661666870117,
				-2.4639759063720703
			],
			"type":"VEC3"
		},
		{
			"bufferView":89,
			"componentType":5126,
			"count":91,
			"type":"VEC3"
		},
		{
			"bufferView":90,
			"componentType":5126,
			"count":91,
			"type":"VEC2"
		},
		{
			"bufferView":91,
			"componentType":5126,
			"count":756,
			"max":[
				65.99234771728516,
				8.48283576965332,
				-4.343024253845215
			],
			"min":[
				49.942955017089844,
				-3.868511199951172,
				-21.123188018798828
			],
			"type":"VEC3"
		},
		{
			"bufferView":92,
			"componentType":5126,
			"count":756,
			"type":"VEC3"
		},
		{
			"bufferView":93,
			"componentType":5126,
			"count":756,
			"type":"VEC2"
		},
		{
			"bufferView":94,
			"componentType":5123,
			"count":2280,
			"type":"SCALAR"
		},
		{
			"bufferView":95,
			"componentType":5126,
			"count":1186,
			"max":[
				58.14188003540039,
				7.2196550369262695,
				11.927360534667969
			],
			"min":[
				49.55105209350586,
				-3.6023001670837402,
				-7.748432159423828
			],
			"type":"VEC3"
		},
		{
			"bufferView":96,
			"componentType":5126,
			"count":1186,
			"type":"VEC3"
		},
		{
			"bufferView":97,
			"componentType":5126,
			"count":1186,
			"type":"VEC2"
		},
		{
			"bufferView":98,
			"componentType":5123,
			"count":2910,
			"type":"SCALAR"
		},
		{
			"bufferView":99,
			"componentType":5126,
			"count":605,
			"max":[
				1.4523082971572876,
				2.8372788429260254,
				5.887140274047852
			],
			"min":[
				-1.4523086547851562,
				-1.230309247970581,
				-14.024028778076172
			],
			"type":"VEC3"
		},
		{
			"bufferView":100,
			"componentType":5126,
			"count":605,
			"type":"VEC3"
		},
		{
			"bufferView":101,
			"componentType":5126,
			"count":605,
			"type":"VEC2"
		},
		{
			"bufferView":102,
			"componentType":5123,
			"count":1188,
			"type":"SCALAR"
		},
		{
			"bufferView":103,
			"componentType":5126,
			"count":605,
			"max":[
				1.4523082971572876,
				2.8372788429260254,
				5.887140274047852
			],
			"min":[
				-1.4523086547851562,
				-1.230309247970581,
				-14.024028778076172
			],
			"type":"VEC3"
		},
		{
			"bufferView":104,
			"componentType":5126,
			"count":605,
			"type":"VEC3"
		},
		{
			"bufferView":105,
			"componentType":5126,
			"count":605,
			"type":"VEC2"
		},
		{
			"bufferView":106,
			"componentType":5126,
			"count":605,
			"max":[
				1.4523082971572876,
				2.8372788429260254,
				5.887140274047852
			],
			"min":[
				-1.4523086547851562,
				-1.230309247970581,
				-14.024028778076172
			],
			"type":"VEC3"
		},
		{
			"bufferView":107,
			"componentType":5126,
			"count":605,
			"type":"VEC3"
		},
		{
			"bufferView":108,
			"componentType":5126,
			"count":605,
			"type":"VEC2"
		},
		{
			"bufferView":109,
			"componentType":5126,
			"count":605,
			"max":[
				1.4523082971572876,
				2.8372788429260254,
				5.887140274047852
			],
			"min":[
				-1.4523086547851562,
				-1.230309247970581,
				-14.024028778076172
			],
			"type":"VEC3"
		},
		{
			"bufferView":110,
			"componentType":5126,
			"count":605,
			"type":"VEC3"
		},
		{
			"bufferView":111,
			"componentType":5126,
			"count":605,
			"type":"VEC2"
		},
		{
			"bufferView":112,
			"componentType":5126,
			"count":605,
			"max":[
				1.4523082971572876,
				2.8372788429260254,
				5.887140274047852
			],
			"min":[
				-1.4523086547851562,
				-1.230309247970581,
				-14.024028778076172
			],
			"type":"VEC3"
		},
		{
			"bufferView":113,
			"componentType":5126,
			"count":605,
			"type":"VEC3"
		},
		{
			"bufferView":114,
			"componentType":5126,
			"count":605,
			"type":"VEC2"
		},
		{
			"bufferView":115,
			"componentType":5126,
			"count":605,
			"max":[
				1.4523082971572876,
				2.8372788429260254,
				5.887140274047852
			],
			"min":[
				-1.4523086547851562,
				-1.230309247970581,
				-14.024028778076172
			],
			"type":"VEC3"
		},
		{
			"bufferView":116,
			"componentType":5126,
			"count":605,
			"type":"VEC3"
		},
		{
			"bufferView":117,
			"componentType":5126,
			"count":605,
			"type":"VEC2"
		},
		{
			"bufferView":118,
			"componentType":5126,
			"count":605,
			"max":[
				1.4523082971572876,
				2.8372788429260254,
				5.887140274047852
			],
			"min":[
				-1.4523086547851562,
				-1.230309247970581,
				-14.024028778076172
			],
			"type":"VEC3"
		},
		{
			"bufferView":119,
			"componentType":5126,
			"count":605,
			"type":"VEC3"
		},
		{
			"bufferView":120,
			"componentType":5126,
			"count":605,
			"type":"VEC2"
		},
		{
			"bufferView":121,
			"componentType":5126,
			"count":605,
			"max":[
				1.4523082971572876,
				2.8372788429260254,
				5.887140274047852
			],
			"min":[
				-1.4523086547851562,
				-1.230309247970581,
				-14.024028778076172
			],
			"type":"VEC3"
		},
		{
			"bufferView":122,
			"componentType":5126,
			"count":605,
			"type":"VEC3"
		},
		{
			"bufferView":123,
			"componentType":5126,
			"count":605,
			"type":"VEC2"
		},
		{
			"bufferView":124,
			"componentType":5126,
			"count":605,
			"max":[
				1.4523082971572876,
				2.8372788429260254,
				5.887140274047852
			],
			"min":[
				-1.4523086547851562,
				-1.230309247970581,
				-14.024028778076172
			],
			"type":"VEC3"
		},
		{
			"bufferView":125,
			"componentType":5126,
			"count":605,
			"type":"VEC3"
		},
		{
			"bufferView":126,
			"componentType":5126,
			"count":605,
			"type":"VEC2"
		},
		{
			"bufferView":127,
			"componentType":5126,
			"count":605,
			"max":[
				1.4523082971572876,
				2.8372788429260254,
				5.887140274047852
			],
			"min":[
				-1.4523086547851562,
				-1.230309247970581,
				-14.024028778076172
			],
			"type":"VEC3"
		},
		{
			"bufferView":128,
			"componentType":5126,
			"count":605,
			"type":"VEC3"
		},
		{
			"bufferView":129,
			"componentType":5126,
			"count":605,
			"type":"VEC2"
		},
		{
			"bufferView":130,
			"componentType":5126,
			"count":605,
			"max":[
				1.4523082971572876,
				2.8372788429260254,
				5.887140274047852
			],
			"min":[
				-1.4523086547851562,
				-1.230309247970581,
				-14.024028778076172
			],
			"type":"VEC3"
		},
		{
			"bufferView":131,
			"componentType":5126,
			"count":605,
			"type":"VEC3"
		},
		{
			"bufferView":132,
			"componentType":5126,
			"count":605,
			"type":"VEC2"
		},
		{
			"bufferView":133,
			"componentType":5126,
			"count":605,
			"max":[
				1.4523082971572876,
				2.8372788429260254,
				5.887140274047852
			],
			"min":[
				-1.4523086547851562,
				-1.230309247970581,
				-14.024028778076172
			],
			"type":"VEC3"
		},
		{
			"bufferView":134,
			"componentType":5126,
			"count":605,
			"type":"VEC3"
		},
		{
			"bufferView":135,
			"componentType":5126,
			"count":605,
			"type":"VEC2"
		},
		{
			"bufferView":136,
			"componentType":5126,
			"count":5324,
			"max":[
				11.596455574035645,
				11.39348316192627,
				2.6740520000457764
			],
			"min":[
				9.116535186767578,
				-3.8276023864746094,
				-2.6740520000457764
			],
			"type":"VEC3"
		},
		{
			"bufferView":137,
			"componentType":5126,
			"count":5324,
			"type":"VEC3"
		},
		{
			"bufferView":138,
			"componentType":5126,
			"count":5324,
			"type":"VEC2"
		},
		{
			"bufferView":139,
			"componentType":5123,
			"count":12072,
			"type":"SCALAR"
		},
		{
			"bufferView":140,
			"componentType":5126,
			"count":421,
			"max":[
				1.4402616024017334,
				4.108874320983887,
				1.1569666862487793
			],
			"min":[
				-1.3546873331069946,
				-4.429945468902588,
				-1.0660685300827026
			],
			"type":"VEC3"
		},
		{
			"bufferView":141,
			"componentType":5126,
			"count":421,
			"type":"VEC3"
		},
		{
			"bufferView":142,
			"componentType":5126,
			"count":421,
			"type":"VEC2"
		},
		{
			"bufferView":143,
			"componentType":5123,
			"count":1404,
			"type":"SCALAR"
		},
		{
			"bufferView":144,
			"componentType":5126,
			"count":592,
			"max":[
				0.9929945468902588,
				2.9539895057678223,
				0.7467136383056641
			],
			"min":[
				-0.8453314304351807,
				-3.027592897415161,
				-0.8304404020309448
			],
			"type":"VEC3"
		},
		{
			"bufferView":145,
			"componentType":5126,
			"count":592,
			"type":"VEC3"
		},
		{
			"bufferView":146,
			"componentType":5126,
			"count":592,
			"type":"VEC2"
		},
		{
			"bufferView":147,
			"componentType":5123,
			"count":888,
			"type":"SCALAR"
		}
	],
	"bufferViews":[
		{
			"buffer":0,
			"byteLength":288,
			"byteOffset":0,
			"target":34962
		},
		{
			"buffer":0,
			"byteLength":288,
			"byteOffset":288,
			"target":34962
		},
		{
			"buffer":0,
			"byteLength":192,
			"byteOffset":576,
			"target":34962
		},
		{
			"buffer":0,
			"byteLength":72,
			"byteOffset":768,
			"target":34963
		},
		{
			"buffer":0,
			"byteLength":1332,
			"byteOffset":840,
			"target":34962
		},
		{
			"buffer":0,
			"byteLength":1332,
			"byteOffset":2172,
			"target":34962
		},
		{
			"buffer":0,
			"byteLength":888,
			"byteOffset":3504,
			"target":34962
		},
		{
			"buffer":0,
			"byteLength":654,
			"byteOffset":4392,
			"target":34963
		},
		{
			"buffer":0,
			"byteLength":144,
			"byteOffset":5048,
			"target":34962
		},
		{
			"buffer":0,
			"byteLength":144,
			"byteOffset":5192,
			"target":34962
		},
		{
			"buffer":0,
			"byteLength":96,
			"byteOffset":5336,
			"target":34962
		},
		{
			"buffer":0,
			"byteLength":48,
			"byteOffset":5432,
			"target":34963
		},
		{
			"buffer":0,
			"byteLength":1968,
			"byteOffset":5480,
			"target":34962
		},
		{
			"buffer":0,
			"byteLength":1968,
			"byteOffset":7448,
			"target":34962
		},
		{
			"buffer":0,
			"byteLength":1312,
			"byteOffset":9416,
			"target":34962
		},
		{
			"buffer":0,
			"byteLength":924,
			"byteOffset":10728,
			"target":34963
		},
		{
			"buffer":0,
			"byteLength":144,
			"byteOffset":11652,
			"target":34962
		},
		{
			"buffer":0,
			"byteLength":144,
			"byteOffset":11796,
			"target":34962
		},
		{
			"buffer":0,
			"byteLength":96,
			"byteOffset":11940,
			"target":34962
		},
		{
			"buffer":0,
			"byteLength":1968,
			"byteOffset":12036,
			"target":34962
		},
		{
			"buffer":0,
			"byteLength":1968,
			"byteOffset":14004,
			"target":34962
		},
		{
			"buffer":0,
			"byteLength":1312,
			"byteOffset":15972,
			"target":34962
		},
		{
			"buffer":0,
			"byteLength":144,
			"byteOffset":17284,
			"target":34962
		},
		{
			"buffer":0,
			"byteLength":144,
			"byteOffset":17428,
			"target":34962
		},
		{
			"buffer":0,
			"byteLength":96,
			"byteOffset":17572,
			"target":34962
		},
		{
			"buffer":0,
			"byteLength":1968,
			"byteOffset":17668,
			"target":34962
		},
		{
			"buffer":0,
			"byteLength":1968,
			"byteOffset":19636,
			"target":34962
		},
		{
			"buffer":0,
			"byteLength":1312,
			"byteOffset":21604,
			"target":34962
		},
		{
			"buffer":0,
			"byteLength":144,
			"byteOffset":22916,
			"target":34962
		},
		{
			"buffer":0,
			"byteLength":144,
			"byteOffset":23060,
			"target":34962
		},
		{
			"buffer":0,
			"byteLength":96,
			"byteOffset":23204,
			"target":34962
		},
		{
			"buffer":0,
			"byteLength":1968,
			"byteOffset":23300,
			"target":34962
		},
		{
			"buffer":0,
			"byteLength":1968,
			"byteOffset":25268,
			"target":34962
		},
		{
			"buffer":0,
			"byteLength":1312,
			"byteOffset":27236,
			"target":34962
		},
		{
			"buffer":0,
			"byteLength":14232,
			"byteOffset":28548,
			"target":34962
		},
		{
			"buffer":0,
			"byteLength":14232,
			"byteOffset":42780,
			"target":34962
		},
		{
			"buffer":0,
			"byteLength":9488,
			"byteOffset":57012,
			"target":34962
		},
		{
			"buffer":0,
			"byteLength":5820,
			"byteOffset":66500,
			"target":34963
		},
		{
			"buffer":0,
			"byteLength":14232,
			"byteOffset":72320,
			"target":34962
		},
		{
			"buffer":0,
			"byteLength":14232,
			"byteOffset":86552,
			"target":34962
		},
		{
			"buffer":0,
			"byteLength":9488,
			"byteOffset":100784,
			"target":34962
		},
		{
			"buffer":0,
			"byteLength":5820,
			"byteOffset":110272,
			"target":34963
		},
		{
			"buffer":0,
			"byteLength":14232,
			"byteOffset":116092,
			"target":34962
		},
		{
			"buffer":0,
			"byteLength":14232,
			"byteOffset":130324,
			"target":34962
		},
		{
			"buffer":0,
			"byteLength":9488,
			"byteOffset":144556,
			"target":34962
		},
		{
			"buffer":0,
			"byteLength":5820,
			"byteOffset":154044,
			"target":34963
		},
		{
			"buffer":0,
			"byteLength":984,
			"byteOffset":159864,
			"target":34962
		},
		{
			"buffer":0,
			"byteLength":984,
			"byteOffset":160848,
			"target":34962
		},
		{
			"buffer":0,
			"byteLength":656,
			"byteOffset":161832,
			"target":34962
		},
		{
			"buffer":0,
			"byteLength":384,
			"byteOffset":162488,
			"target":34963
		},
		{
			"buffer":0,
			"byteLength":7032,
			"byteOffset":162872,
			"target":34962
		},
		{
			"buffer":0,
			"byteLength":7032,
			"byteOffset":169904,
			"target":34962
		},
		{
			"buffer":0,
			"byteLength":4688,
			"byteOffset":176936,
			"target":34962
		},
		{
			"buffer":0,
			"byteLength":2712,
			"byteOffset":181624,
			"target":34963
		},
		{
			"buffer":0,
			"byteLength":1092,
			"byteOffset":184336,
			"target":34962
		},
		{
			"buffer":0,
			"byteLength":1092,
			"byteOffset":185428,
			"target":34962
		},
		{
			"buffer":0,
			"byteLength":728,
			"byteOffset":186520,
			"target":34962
		},
		{
			"buffer":0,
			"byteLength":864,
			"byteOffset":187248,
			"target":34963
		},
		{
			"buffer":0,
			"byteLength":1092,
			"byteOffset":188112,
			"target":34962
		},
		{
			"buffer":0,
			"byteLength":1092,
			"byteOffset":189204,
			"target":34962
		},
		{
			"buffer":0,
			"byteLength":728,
			"byteOffset":190296,
			"target":34962
		},
		{
			"buffer":0,
			"byteLength":7032,
			"byteOffset":191024,
			"target":34962
		},
		{
			"buffer":0,
			"byteLength":7032,
			"byteOffset":198056,
			"target":34962
		},
		{
			"buffer":0,
			"byteLength":4688,
			"byteOffset":205088,
			"target":34962
		},
		{
			"buffer":0,
			"byteLength":2712,
			"byteOffset":209776,
			"target":34963
		},
		{
			"buffer":0,
			"byteLength":1092,
			"byteOffset":212488,
			"target":34962
		},
		{
			"buffer":0,
			"byteLength":1092,
			"byteOffset":213580,
			"target":34962
		},
		{
			"buffer":0,
			"byteLength":728,
			"byteOffset":214672,
			"target":34962
		},
		{
			"buffer":0,
			"byteLength":1092,
			"byteOffset":215400,
			"target":34962
		},
		{
			"buffer":0,
			"byteLength":1092,
			"byteOffset":216492,
			"target":34962
		},
		{
			"buffer":0,
			"byteLength":728,
			"byteOffset":217584,
			"target":34962
		},
		{
			"buffer":0,
			"byteLength":7032,
			"byteOffset":218312,
			"target":34962
		},
		{
			"buffer":0,
			"byteLength":7032,
			"byteOffset":225344,
			"target":34962
		},
		{
			"buffer":0,
			"byteLength":4688,
			"byteOffset":232376,
			"target":34962
		},
		{
			"buffer":0,
			"byteLength":2712,
			"byteOffset":237064,
			"target":34963
		},
		{
			"buffer":0,
			"byteLength":1092,
			"byteOffset":239776,
			"target":34962
		},
		{
			"buffer":0,
			"byteLength":1092,
			"byteOffset":240868,
			"target":34962
		},
		{
			"buffer":0,
			"byteLength":728,
			"byteOffset":241960,
			"target":34962
		},
		{
			"buffer":0,
			"byteLength":1092,
			"byteOffset":242688,
			"target":34962
		},
		{
			"buffer":0,
			"byteLength":1092,
			"byteOffset":243780,
			"target":34962
		},
		{
			"buffer":0,
			"byteLength":728,
			"byteOffset":244872,
			"target":34962
		},
		{
			"buffer":0,
			"byteLength":7032,
			"byteOffset":245600,
			"target":34962
		},
		{
			"buffer":0,
			"byteLength":7032,
			"byteOffset":252632,
			"target":34962
		},
		{
			"buffer":0,
			"byteLength":4688,
			"byteOffset":259664,
			"target":34962
		},
		{
			"buffer":0,
			"byteLength":2712,
			"byteOffset":264352,
			"target":34963
		},
		{
			"buffer":0,
			"byteLength":1092,
			"byteOffset":267064,
			"target":34962
		},
		{
			"buffer":0,
			"byteLength":1092,
			"byteOffset":268156,
			"target":34962
		},
		{
			"buffer":0,
			"byteLength":728,
			"byteOffset":269248,
			"target":34962
		},
		{
			"buffer":0,
			"byteLength":1092,
			"byteOffset":269976,
			"target":34962
		},
		{
			"buffer":0,
			"byteLength":1092,
			"byteOffset":271068,
			"target":34962
		},
		{
			"buffer":0,
			"byteLength":728,
			"byteOffset":272160,
			"target":34962
		},
		{
			"buffer":0,
			"byteLength":9072,
			"byteOffset":272888,
			"target":34962
		},
		{
			"buffer":0,
			"byteLength":9072,
			"byteOffset":281960,
			"target":34962
		},
		{
			"buffer":0,
			"byteLength":6048,
			"byteOffset":291032,
			"target":34962
		},
		{
			"buffer":0,
			"byteLength":4560,
			"byteOffset":297080,
			"target":34963
		},
		{
			"buffer":0,
			"byteLength":14232,
			"byteOffset":301640,
			"target":34962
		},
		{
			"buffer":0,
			"byteLength":14232,
			"byteOffset":315872,
			"target":34962
		},
		{
			"buffer":0,
			"byteLength":9488,
			"byteOffset":330104,
			"target":34962
		},
		{
			"buffer":0,
			"byteLength":5820,
			"byteOffset":339592,
			"target":34963
		},
		{
			"buffer":0,
			"byteLength":7260,
			"byteOffset":345412,
			"target":34962
		},
		{
			"buffer":0,
			"byteLength":7260,
			"byteOffset":352672,
			"target":34962
		},
		{
			"buffer":0,
			"byteLength":4840,
			"byteOffset":359932,
			"target":34962
		},
		{
			"buffer":0,
			"byteLength":2376,
			"byteOffset":364772,
			"target":34963
		},
		{
			"buffer":0,
			"byteLength":7260,
			"byteOffset":367148,
			"target":34962
		},
		{
			"buffer":0,
			"byteLength":7260,
			"byteOffset":374408,
			"target":34962
		},
		{
			"buffer":0,
			"byteLength":4840,
			"byteOffset":381668,
			"target":34962
		},
		{
			"buffer":0,
			"byteLength":7260,
			"byteOffset":386508,
			"target":34962
		},
		{
			"buffer":0,
			"byteLength":7260,
			"byteOffset":393768,
			"target":34962
		},
		{
			"buffer":0,
			"byteLength":4840,
			"byteOffset":401028,
			"target":34962
		},
		{
			"buffer":0,
			"byteLength":7260,
			"byteOffset":405868,
			"target":34962
		},
		{
			"buffer":0,
			"byteLength":7260,
			"byteOffset":413128,
			"target":34962
		},
		{
			"buffer":0,
			"byteLength":4840,
			"byteOffset":420388,
			"target":34962
		},
		{
			"buffer":0,
			"byteLength":7260,
			"byteOffset":425228,
			"target":34962
		},
		{
			"buffer":0,
			"byteLength":7260,
			"byteOffset":432488,
			"target":34962
		},
		{
			"buffer":0,
			"byteLength":4840,
			"byteOffset":439748,
			"target":34962
		},
		{
			"buffer":0,
			"byteLength":7260,
			"byteOffset":444588,
			"target":34962
		},
		{
			"buffer":0,
			"byteLength":7260,
			"byteOffset":451848,
			"target":34962
		},
		{
			"buffer":0,
			"byteLength":4840,
			"byteOffset":459108,
			"target":34962
		},
		{
			"buffer":0,
			"byteLength":7260,
			"byteOffset":463948,
			"target":34962
		},
		{
			"buffer":0,
			"byteLength":7260,
			"byteOffset":471208,
			"target":34962
		},
		{
			"buffer":0,
			"byteLength":4840,
			"byteOffset":478468,
			"target":34962
		},
		{
			"buffer":0,
			"byteLength":7260,
			"byteOffset":483308,
			"target":34962
		},
		{
			"buffer":0,
			"byteLength":7260,
			"byteOffset":490568,
			"target":34962
		},
		{
			"buffer":0,
			"byteLength":4840,
			"byteOffset":497828,
			"target":34962
		},
		{
			"buffer":0,
			"byteLength":7260,
			"byteOffset":502668,
			"target":34962
		},
		{
			"buffer":0,
			"byteLength":7260,
			"byteOffset":509928,
			"target":34962
		},
		{
			"buffer":0,
			"byteLength":4840,
			"byteOffset":517188,
			"target":34962
		},
		{
			"buffer":0,
			"byteLength":7260,
			"byteOffset":522028,
			"target":34962
		},
		{
			"buffer":0,
			"byteLength":7260,
			"byteOffset":529288,
			"target":34962
		},
		{
			"buffer":0,
			"byteLength":4840,
			"byteOffset":536548,
			"target":34962
		},
		{
			"buffer":0,
			"byteLength":7260,
			"byteOffset":541388,
			"target":34962
		},
		{
			"buffer":0,
			"byteLength":7260,
			"byteOffset":548648,
			"target":34962
		},
		{
			"buffer":0,
			"byteLength":4840,
			"byteOffset":555908,
			"target":34962
		},
		{
			"buffer":0,
			"byteLength":7260,
			"byteOffset":560748,
			"target":34962
		},
		{
			"buffer":0,
			"byteLength":7260,
			"byteOffset":568008,
			"target":34962
		},
		{
			"buffer":0,
			"byteLength":4840,
			"byteOffset":575268,
			"target":34962
		},
		{
			"buffer":0,
			"byteLength":63888,
			"byteOffset":580108,
			"target":34962
		},
		{
			"buffer":0,
			"byteLength":63888,
			"byteOffset":643996,
			"target":34962
		},
		{
			"buffer":0,
			"byteLength":42592,
			"byteOffset":707884,
			"target":34962
		},
		{
			"buffer":0,
			"byteLength":24144,
			"byteOffset":750476,
			"target":34963
		},
		{
			"buffer":0,
			"byteLength":5052,
			"byteOffset":774620,
			"target":34962
		},
		{
			"buffer":0,
			"byteLength":5052,
			"byteOffset":779672,
			"target":34962
		},
		{
			"buffer":0,
			"byteLength":3368,
			"byteOffset":784724,
			"target":34962
		},
		{
			"buffer":0,
			"byteLength":2808,
			"byteOffset":788092,
			"target":34963
		},
		{
			"buffer":0,
			"byteLength":7104,
			"byteOffset":790900,
			"target":34962
		},
		{
			"buffer":0,
			"byteLength":7104,
			"byteOffset":798004,
			"target":34962
		},
		{
			"buffer":0,
			"byteLength":4736,
			"byteOffset":805108,
			"target":34962
		},
		{
			"buffer":0,
			"byteLength":1776,
			"byteOffset":809844,
			"target":34963
		}
	],
	"samplers":[
		{
			"magFilter":9729,
			"minFilter":9987
		}
	],
	"buffers":[
		{
			"byteLength":811620,
			"uri":"Escenario_2.bin"
		}
	]
}
