{
	"asset":{
		"generator":"Khronos glTF Blender I/O v4.5.47",
		"version":"2.0"
	},
	"extensionsUsed":[
		"EXT_texture_webp"
	],
	"extensionsRequired":[
		"EXT_texture_webp"
	],
	"scene":0,
	"scenes":[
		{
			"name":"Scene",
			"nodes":[
				0,
				1,
				2,
				3,
				4,
				5,
				6,
				7,
				8,
				9,
				10,
				11,
				12,
				13,
				14,
				15,
				16,
				17,
				18,
				19,
				20,
				21,
				22,
				23,
				24,
				25,
				26,
				27,
				28,
				29,
				30,
				31,
				32,
				33,
				34,
				35,
				36,
				37,
				38,
				39,
				40,
				41,
				42,
				43,
				44,
				45,
				46
			]
		}
	],
	"nodes":[
		{
			"mesh":0,
			"name":"Character_init",
			"translation":[
				37.19955825805664,
				5.399064064025879,
				-12.41286563873291
			]
		},
		{
			"mesh":1,
			"name":"roca grande",
			"translation":[
				72.11661529541016,
				-2.327024459838867,
				6.1190338134765625
			]
		},
		{
			"mesh":2,
			"name":"roca peque\u00f1a",
			"translation":[
				61.14211654663086,
				-2.341660261154175,
				12.961698532104492
			]
		},
		{
			"mesh":3,
			"name":"suelo_collision"
		},
		{
			"mesh":4,
			"name":"escalera_collision"
		},
		{
			"mesh":5,
			"name":"plataforma_collision"
		},
		{
			"mesh":6,
			"name":"escalera_collision.001"
		},
		{
			"mesh":7,
			"name":"plataforma_collision.001"
		},
		{
			"mesh":8,
			"name":"escalera_collision.002"
		},
		{
			"mesh":9,
			"name":"plataforma_collision.002"
		},
		{
			"mesh":10,
			"name":"escalera_collision.003"
		},
		{
			"mesh":11,
			"name":"plataforma_collision.003"
		},
		{
			"mesh":12,
			"name":"Cube.046"
		},
		{
			"mesh":13,
			"name":"Cube.047"
		},
		{
			"mesh":14,
			"name":"Cube.048"
		},
		{
			"mesh":15,
			"name":"Cube.050"
		},
		{
			"mesh":16,
			"name":"Cube.051"
		},
		{
			"mesh":17,
			"name":"Cube.052"
		},
		{
			"mesh":18,
			"name":"Cube.053"
		},
		{
			"mesh":19,
			"name":"Cube.054"
		},
		{
			"mesh":20,
			"name":"Cube.055"
		},
		{
			"mesh":21,
			"name":"Cube.056"
		},
		{
			"mesh":22,
			"name":"Cube.057"
		},
		{
			"mesh":23,
			"name":"Cube.058"
		},
		{
			"mesh":24,
			"name":"Cube.059"
		},
		{
			"mesh":25,
			"name":"Cube.060"
		},
		{
			"mesh":26,
			"name":"Cube.061"
		},
		{
			"mesh":27,
			"name":"Cube.062"
		},
		{
			"mesh":28,
			"name":"Cylinder"
		},
		{
			"mesh":29,
			"name":"Cube.049"
		},
		{
			"mesh":30,
			"name":"Cube.002",
			"rotation":[
				-0.5696262717247009,
				0.4189580976963043,
				0.5696263313293457,
				0.41895806789398193
			],
			"translation":[
				32.545379638671875,
				13.182809829711914,
				-15.753353118896484
			]
		},
		{
			"mesh":31,
			"name":"Cube.003",
			"rotation":[
				-0.5696262717247009,
				0.4189580976963043,
				0.5696263313293457,
				0.41895806789398193
			],
			"translation":[
				32.545379638671875,
				13.182809829711914,
				-18.657663345336914
			]
		},
		{
			"mesh":32,
			"name":"Cube.004",
			"rotation":[
				-0.5696262717247009,
				0.4189580976963043,
				0.5696263313293457,
				0.41895806789398193
			],
			"translation":[
				32.545379638671875,
				13.182809829711914,
				-21.58200454711914
			]
		},
		{
			"mesh":33,
			"name":"Cube.005",
			"rotation":[
				-0.5696262717247009,
				0.4189580976963043,
				0.5696263313293457,
				0.41895806789398193
			],
			"translation":[
				32.54537582397461,
				13.182809829711914,
				-24.48631477355957
			]
		},
		{
			"mesh":34,
			"name":"Cube.001",
			"rotation":[
				-0.5696262717247009,
				0.4189580976963043,
				0.5696263313293457,
				0.41895806789398193
			],
			"translation":[
				32.54537582397461,
				13.182809829711914,
				-27.350566864013672
			]
		},
		{
			"mesh":35,
			"name":"Cube.010",
			"rotation":[
				-0.5696262717247009,
				0.4189580976963043,
				0.5696263313293457,
				0.41895806789398193
			],
			"translation":[
				32.54537582397461,
				13.182809829711914,
				-30.2548770904541
			]
		},
		{
			"mesh":36,
			"name":"Cube.006",
			"rotation":[
				-0.5696262717247009,
				0.4189580976963043,
				0.5696263313293457,
				0.41895806789398193
			],
			"translation":[
				32.545379638671875,
				13.182809829711914,
				5.324974060058594
			]
		},
		{
			"mesh":37,
			"name":"Cube.007",
			"rotation":[
				-0.5696262717247009,
				0.4189580976963043,
				0.5696263313293457,
				0.41895806789398193
			],
			"translation":[
				32.545379638671875,
				13.182809829711914,
				2.420663833618164
			]
		},
		{
			"mesh":38,
			"name":"Cube.008",
			"rotation":[
				-0.5696262717247009,
				0.4189580976963043,
				0.5696263313293457,
				0.41895806789398193
			],
			"translation":[
				32.545379638671875,
				13.182809829711914,
				-0.5036773681640625
			]
		},
		{
			"mesh":39,
			"name":"Cube.009",
			"rotation":[
				-0.5696262717247009,
				0.4189580976963043,
				0.5696263313293457,
				0.41895806789398193
			],
			"translation":[
				32.545379638671875,
				13.182809829711914,
				-3.407987594604492
			]
		},
		{
			"mesh":40,
			"name":"Cube.011",
			"rotation":[
				-0.5696262717247009,
				0.4189580976963043,
				0.5696263313293457,
				0.41895806789398193
			],
			"translation":[
				32.545379638671875,
				13.182809829711914,
				-6.272239685058594
			]
		},
		{
			"mesh":41,
			"name":"Cube.012",
			"rotation":[
				-0.5696262717247009,
				0.4189580976963043,
				0.5696263313293457,
				0.41895806789398193
			],
			"translation":[
				32.545379638671875,
				13.182809829711914,
				-9.176549911499023
			]
		},
		{
			"mesh":42,
			"name":"estatua",
			"scale":[
				1.9726371765136719,
				1.9726371765136719,
				1.9726371765136719
			],
			"translation":[
				58.37164306640625,
				-3.0809485912323,
				-12.723405838012695
			]
		},
		{
			"mesh":43,
			"name":"estatua.001",
			"rotation":[
				0,
				0.5952500104904175,
				0,
				0.8035407066345215
			],
			"scale":[
				1.9726370573043823,
				1.9726371765136719,
				1.9726370573043823
			],
			"translation":[
				58.37164306640625,
				-3.0809485912323,
				-12.723405838012695
			]
		},
		{
			"mesh":44,
			"name":"estatua.002",
			"rotation":[
				0,
				-0.5929663181304932,
				0,
				0.8052273988723755
			],
			"scale":[
				1.9726372957229614,
				1.9726371765136719,
				1.9726372957229614
			],
			"translation":[
				58.37164306640625,
				-3.0809485912323,
				-12.723405838012695
			]
		},
		{
			"mesh":45,
			"name":"estatua.003",
			"rotation":[
				0,
				-0.9484366178512573,
				0,
				0.3169671297073364
			],
			"scale":[
				1.9726370573043823,
				1.9726371765136719,
				1.9726370573043823
			],
			"translation":[
				58.37164306640625,
				-3.0809485912323,
				-12.723405838012695
			]
		},
		{
			"mesh":46,
			"name":"estatua.004",
			"rotation":[
				0,
				0.9517242908477783,
				0,
				0.30695417523384094
			],
			"scale":[
				1.9726371765136719,
				1.9726371765136719,
				1.9726371765136719
			],
			"translation":[
				58.37164306640625,
				-3.0809485912323,
				-12.723405838012695
			]
		}
	],
	"materials":[
		{
			"doubleSided":true,
			"name":"contrafuerte",
			"normalTexture":{
				"index":0
			},
			"pbrMetallicRoughness":{
				"baseColorTexture":{
					"index":1
				},
				"metallicRoughnessTexture":{
					"index":2
				}
			}
		},
		{
			"doubleSided":true,
			"name":"Material.005",
			"pbrMetallicRoughness":{
				"metallicFactor":0.050909072160720825,
				"roughnessFactor":0.503636360168457
			}
		}
	],
	"meshes":[
		{
			"name":"Character_init",
			"primitives":[
				{
					"attributes":{
						"POSITION":0,
						"NORMAL":1,
						"TEXCOORD_0":2
					},
					"indices":3
				}
			]
		},
		{
			"name":"Cube.056",
			"primitives":[
				{
					"attributes":{
						"POSITION":4,
						"NORMAL":5,
						"TEXCOORD_0":6
					},
					"indices":7
				}
			]
		},
		{
			"name":"Cube.057",
			"primitives":[
				{
					"attributes":{
						"POSITION":8,
						"NORMAL":9,
						"TEXCOORD_0":10
					},
					"indices":11
				}
			]
		},
		{
			"name":"Cube.046",
			"primitives":[
				{
					"attributes":{
						"POSITION":12,
						"NORMAL":13,
						"TEXCOORD_0":14
					},
					"indices":15
				}
			]
		},
		{
			"name":"Cube.047",
			"primitives":[
				{
					"attributes":{
						"POSITION":16,
						"NORMAL":17,
						"TEXCOORD_0":18
					},
					"indices":19
				}
			]
		},
		{
			"name":"Cube.048",
			"primitives":[
				{
					"attributes":{
						"POSITION":20,
						"NORMAL":21,
						"TEXCOORD_0":22
					},
					"indices":23
				}
			]
		},
		{
			"name":"Cube.049",
			"primitives":[
				{
					"attributes":{
						"POSITION":24,
						"NORMAL":25,
						"TEXCOORD_0":26
					},
					"indices":19
				}
			]
		},
		{
			"name":"Cube.050",
			"primitives":[
				{
					"attributes":{
						"POSITION":27,
						"NORMAL":28,
						"TEXCOORD_0":29
					},
					"indices":23
				}
			]
		},
		{
			"name":"Cube.051",
			"primitives":[
				{
					"attributes":{
						"POSITION":30,
						"NORMAL":31,
						"TEXCOORD_0":32
					},
					"indices":19
				}
			]
		},
		{
			"name":"Cube.052",
			"primitives":[
				{
					"attributes":{
						"POSITION":33,
						"NORMAL":34,
						"TEXCOORD_0":35
					},
					"indices":23
				}
			]
		},
		{
			"name":"Cube.053",
			"primitives":[
				{
					"attributes":{
						"POSITION":36,
						"NORMAL":37,
						"TEXCOORD_0":38
					},
					"indices":19
				}
			]
		},
		{
			"name":"Cube.054",
			"primitives":[
				{
					"attributes":{
						"POSITION":39,
						"NORMAL":40,
						"TEXCOORD_0":41
					},
					"indices":23
				}
			]
		},
		{
			"name":"Cube.029",
			"primitives":[
				{
					"attributes":{
						"POSITION":42,
						"NORMAL":43,
						"TEXCOORD_0":44
					},
					"indices":45
				}
			]
		},
		{
			"name":"Cube.030",
			"primitives":[
				{
					"attributes":{
						"POSITION":46,
						"NORMAL":47,
						"TEXCOORD_0":48
					},
					"indices":49
				}
			]
		},
		{
			"name":"Cube.031",
			"primitives":[
				{
					"attributes":{
						"POSITION":50,
						"NORMAL":51,
						"TEXCOORD_0":52
					},
					"indices":53
				}
			]
		},
		{
			"name":"Cube.033",
			"primitives":[
				{
					"attributes":{
						"POSITION":54,
						"NORMAL":55,
						"TEXCOORD_0":56
					},
					"indices":57
				}
			]
		},
		{
			"name":"Cube.034",
			"primitives":[
				{
					"attributes":{
						"POSITION":58,
						"NORMAL":59,
						"TEXCOORD_0":60
					},
					"indices":61
				}
			]
		},
		{
			"name":"Cube.035",
			"primitives":[
				{
					"attributes":{
						"POSITION":62,
						"NORMAL":63,
						"TEXCOORD_0":64
					},
					"indices":65
				}
			]
		},
		{
			"name":"Cube.036",
			"primitives":[
				{
					"attributes":{
						"POSITION":66,
						"NORMAL":67,
						"TEXCOORD_0":68
					},
					"indices":65
				}
			]
		},
		{
			"name":"Cube.037",
			"primitives":[
				{
					"attributes":{
						"POSITION":69,
						"NORMAL":70,
						"TEXCOORD_0":71
					},
					"indices":72
				}
			]
		},
		{
			"name":"Cube.038",
			"primitives":[
				{
					"attributes":{
						"POSITION":73,
						"NORMAL":74,
						"TEXCOORD_0":75
					},
					"indices":65
				}
			]
		},
		{
			"name":"Cube.039",
			"primitives":[
				{
					"attributes":{
						"POSITION":76,
						"NORMAL":77,
						"TEXCOORD_0":78
					},
					"indices":65
				}
			]
		},
		{
			"name":"Cube.040",
			"primitives":[
				{
					"attributes":{
						"POSITION":79,
						"NORMAL":80,
						"TEXCOORD_0":81
					},
					"indices":82
				}
			]
		},
		{
			"name":"Cube.041",
			"primitives":[
				{
					"attributes":{
						"POSITION":83,
						"NORMAL":84,
						"TEXCOORD_0":85
					},
					"indices":65
				}
			]
		},
		{
			"name":"Cube.042",
			"primitives":[
				{
					"attributes":{
						"POSITION":86,
						"NORMAL":87,
						"TEXCOORD_0":88
					},
					"indices":65
				}
			]
		},
		{
			"name":"Cube.043",
			"primitives":[
				{
					"attributes":{
						"POSITION":89,
						"NORMAL":90,
						"TEXCOORD_0":91
					},
					"indices":92
				}
			]
		},
		{
			"name":"Cube.044",
			"primitives":[
				{
					"attributes":{
						"POSITION":93,
						"NORMAL":94,
						"TEXCOORD_0":95
					},
					"indices":65
				}
			]
		},
		{
			"name":"Cube.045",
			"primitives":[
				{
					"attributes":{
						"POSITION":96,
						"NORMAL":97,
						"TEXCOORD_0":98
					},
					"indices":65
				}
			]
		},
		{
			"name":"Cylinder",
			"primitives":[
				{
					"attributes":{
						"POSITION":99,
						"NORMAL":100,
						"TEXCOORD_0":101
					},
					"indices":102
				}
			]
		},
		{
			"name":"Cube.032",
			"primitives":[
				{
					"attributes":{
						"POSITION":103,
						"NORMAL":104,
						"TEXCOORD_0":105
					},
					"indices":106
				}
			]
		},
		{
			"name":"Cube.008",
			"primitives":[
				{
					"attributes":{
						"POSITION":107,
						"NORMAL":108,
						"TEXCOORD_0":109
					},
					"indices":110,
					"material":0
				}
			]
		},
		{
			"name":"Cube.008",
			"primitives":[
				{
					"attributes":{
						"POSITION":111,
						"NORMAL":112,
						"TEXCOORD_0":113
					},
					"indices":110,
					"material":0
				}
			]
		},
		{
			"name":"Cube.008",
			"primitives":[
				{
					"attributes":{
						"POSITION":114,
						"NORMAL":115,
						"TEXCOORD_0":116
					},
					"indices":110,
					"material":0
				}
			]
		},
		{
			"name":"Cube.008",
			"primitives":[
				{
					"attributes":{
						"POSITION":117,
						"NORMAL":118,
						"TEXCOORD_0":119
					},
					"indices":110,
					"material":0
				}
			]
		},
		{
			"name":"Cube.008",
			"primitives":[
				{
					"attributes":{
						"POSITION":120,
						"NORMAL":121,
						"TEXCOORD_0":122
					},
					"indices":110,
					"material":0
				}
			]
		},
		{
			"name":"Cube.008",
			"primitives":[
				{
					"attributes":{
						"POSITION":123,
						"NORMAL":124,
						"TEXCOORD_0":125
					},
					"indices":110,
					"material":0
				}
			]
		},
		{
			"name":"Cube.008",
			"primitives":[
				{
					"attributes":{
						"POSITION":126,
						"NORMAL":127,
						"TEXCOORD_0":128
					},
					"indices":110,
					"material":0
				}
			]
		},
		{
			"name":"Cube.008",
			"primitives":[
				{
					"attributes":{
						"POSITION":129,
						"NORMAL":130,
						"TEXCOORD_0":131
					},
					"indices":110,
					"material":0
				}
			]
		},
		{
			"name":"Cube.008",
			"primitives":[
				{
					"attributes":{
						"POSITION":132,
						"NORMAL":133,
						"TEXCOORD_0":134
					},
					"indices":110,
					"material":0
				}
			]
		},
		{
			"name":"Cube.008",
			"primitives":[
				{
					"attributes":{
						"POSITION":135,
						"NORMAL":136,
						"TEXCOORD_0":137
					},
					"indices":110,
					"material":0
				}
			]
		},
		{
			"name":"Cube.008",
			"primitives":[
				{
					"attributes":{
						"POSITION":138,
						"NORMAL":139,
						"TEXCOORD_0":140
					},
					"indices":110,
					"material":0
				}
			]
		},
		{
			"name":"Cube.008",
			"primitives":[
				{
					"attributes":{
						"POSITION":141,
						"NORMAL":142,
						"TEXCOORD_0":143
					},
					"indices":110,
					"material":0
				}
			]
		},
		{
			"name":"Cube.055",
			"primitives":[
				{
					"attributes":{
						"POSITION":144,
						"NORMAL":145,
						"TEXCOORD_0":146
					},
					"indices":147,
					"material":1
				}
			]
		},
		{
			"name":"Cube.058",
			"primitives":[
				{
					"attributes":{
						"POSITION":148,
						"NORMAL":149,
						"TEXCOORD_0":150
					},
					"indices":147,
					"material":1
				}
			]
		},
		{
			"name":"Cube.059",
			"primitives":[
				{
					"attributes":{
						"POSITION":151,
						"NORMAL":152,
						"TEXCOORD_0":153
					},
					"indices":147,
					"material":1
				}
			]
		},
		{
			"name":"Cube.060",
			"primitives":[
				{
					"attributes":{
						"POSITION":154,
						"NORMAL":155,
						"TEXCOORD_0":156
					},
					"indices":147,
					"material":1
				}
			]
		},
		{
			"name":"Cube.061",
			"primitives":[
				{
					"attributes":{
						"POSITION":157,
						"NORMAL":158,
						"TEXCOORD_0":159
					},
					"indices":147,
					"material":1
				}
			]
		}
	],
	"textures":[
		{
			"extensions":{
				"EXT_texture_webp":{
					"source":0
				}
			},
			"sampler":0
		},
		{
			"extensions":{
				"EXT_texture_webp":{
					"source":1
				}
			},
			"sampler":0
		},
		{
			"extensions":{
				"EXT_texture_webp":{
					"source":2
				}
			},
			"sampler":0
		}
	],
	"images":[
		{
			"mimeType":"image/webp",
			"name":"contrafuerte normalMIX",
			"uri":"contrafuerte%20normalMIX.webp"
		},
		{
			"mimeType":"image/webp",
			"name":"contrafuerte_DefaultMaterial_BaseColor",
			"uri":"contrafuerte_DefaultMaterial_BaseColor.webp"
		},
		{
			"mimeType":"image/webp",
			"name":"contrafuerte_DefaultMaterial_Metallic-contrafuerte_DefaultMaterial_Roughness",
			"uri":"contrafuerte_DefaultMaterial_Metallic-contrafuerte_DefaultMaterial_Roughness.webp"
		}
	],
	"accessors":[
		{
			"bufferView":0,
			"componentType":5126,
			"count":24,
			"max":[
				1,
				1.0000004768371582,
				0.9999990463256836
			],
			"min":[
				-1,
				-0.9999995231628418,
				-1.0000009536743164
			],
			"type":"VEC3"
		},
		{
			"bufferView":1,
			"componentType":5126,
			"count":24,
			"type":"VEC3"
		},
		{
			"bufferView":2,
			"componentType":5126,
			"count":24,
			"type":"VEC2"
		},
		{
			"bufferView":3,
			"componentType":5123,
			"count":36,
			"type":"SCALAR"
		},
		{
			"bufferView":4,
			"componentType":5126,
			"count":231,
			"max":[
				2.324310302734375,
				6.859951496124268,
				1.8905220031738281
			],
			"min":[
				-2.1923980712890625,
				-7.519783020019531,
				-1.7203426361083984
			],
			"type":"VEC3"
		},
		{
			"bufferView":5,
			"componentType":5126,
			"count":231,
			"type":"VEC3"
		},
		{
			"bufferView":6,
			"componentType":5126,
			"count":231,
			"type":"VEC2"
		},
		{
			"bufferView":7,
			"componentType":5123,
			"count":372,
			"type":"SCALAR"
		},
		{
			"bufferView":8,
			"componentType":5126,
			"count":148,
			"max":[
				1.6107673645019531,
				4.901693344116211,
				1.198685646057129
			],
			"min":[
				-1.3561897277832031,
				-5.139772415161133,
				-1.3716611862182617
			],
			"type":"VEC3"
		},
		{
			"bufferView":9,
			"componentType":5126,
			"count":148,
			"type":"VEC3"
		},
		{
			"bufferView":10,
			"componentType":5126,
			"count":148,
			"type":"VEC2"
		},
		{
			"bufferView":11,
			"componentType":5123,
			"count":234,
			"type":"SCALAR"
		},
		{
			"bufferView":12,
			"componentType":5126,
			"count":111,
			"max":[
				63.73101806640625,
				4.4044599533081055,
				-6.776622295379639
			],
			"min":[
				29.31317138671875,
				4.370290279388428,
				-18.689594268798828
			],
			"type":"VEC3"
		},
		{
			"bufferView":13,
			"componentType":5126,
			"count":111,
			"type":"VEC3"
		},
		{
			"bufferView":14,
			"componentType":5126,
			"count":111,
			"type":"VEC2"
		},
		{
			"bufferView":15,
			"componentType":5123,
			"count":327,
			"type":"SCALAR"
		},
		{
			"bufferView":16,
			"componentType":5126,
			"count":12,
			"max":[
				58.14188003540039,
				7.208366394042969,
				-1.924102783203125
			],
			"min":[
				54.47802734375,
				4.38997745513916,
				-7.719820022583008
			],
			"type":"VEC3"
		},
		{
			"bufferView":17,
			"componentType":5126,
			"count":12,
			"type":"VEC3"
		},
		{
			"bufferView":18,
			"componentType":5126,
			"count":12,
			"type":"VEC2"
		},
		{
			"bufferView":19,
			"componentType":5123,
			"count":24,
			"type":"SCALAR"
		},
		{
			"bufferView":20,
			"componentType":5126,
			"count":164,
			"max":[
				57.481693267822266,
				7.2196550369262695,
				11.927360534667969
			],
			"min":[
				49.55105209350586,
				7.1412811279296875,
				-3.0779953002929688
			],
			"type":"VEC3"
		},
		{
			"bufferView":21,
			"componentType":5126,
			"count":164,
			"type":"VEC3"
		},
		{
			"bufferView":22,
			"componentType":5126,
			"count":164,
			"type":"VEC2"
		},
		{
			"bufferView":23,
			"componentType":5123,
			"count":462,
			"type":"SCALAR"
		},
		{
			"bufferView":24,
			"componentType":5126,
			"count":12,
			"max":[
				67.31946563720703,
				7.208366394042969,
				-5.139993667602539
			],
			"min":[
				61.75395965576172,
				4.38997745513916,
				-10.305614471435547
			],
			"type":"VEC3"
		},
		{
			"bufferView":25,
			"componentType":5126,
			"count":12,
			"type":"VEC3"
		},
		{
			"bufferView":26,
			"componentType":5126,
			"count":12,
			"type":"VEC2"
		},
		{
			"bufferView":27,
			"componentType":5126,
			"count":164,
			"max":[
				78.74758911132812,
				7.2196550369262695,
				4.129497528076172
			],
			"min":[
				65.612060546875,
				7.1412811279296875,
				-7.3730926513671875
			],
			"type":"VEC3"
		},
		{
			"bufferView":28,
			"componentType":5126,
			"count":164,
			"type":"VEC3"
		},
		{
			"bufferView":29,
			"componentType":5126,
			"count":164,
			"type":"VEC2"
		},
		{
			"bufferView":30,
			"componentType":5126,
			"count":12,
			"max":[
				67.31454467773438,
				7.208366394042969,
				-15.316442489624023
			],
			"min":[
				61.695228576660156,
				4.38997745513916,
				-20.43682098388672
			],
			"type":"VEC3"
		},
		{
			"bufferView":31,
			"componentType":5126,
			"count":12,
			"type":"VEC3"
		},
		{
			"bufferView":32,
			"componentType":5126,
			"count":12,
			"type":"VEC2"
		},
		{
			"bufferView":33,
			"componentType":5126,
			"count":164,
			"max":[
				78.3996353149414,
				7.2196550369262695,
				-18.385101318359375
			],
			"min":[
				65.44644927978516,
				7.1412811279296875,
				-30.134136199951172
			],
			"type":"VEC3"
		},
		{
			"bufferView":34,
			"componentType":5126,
			"count":164,
			"type":"VEC3"
		},
		{
			"bufferView":35,
			"componentType":5126,
			"count":164,
			"type":"VEC2"
		},
		{
			"bufferView":36,
			"componentType":5126,
			"count":12,
			"max":[
				57.97298049926758,
				7.208366394042969,
				-17.625011444091797
			],
			"min":[
				54.355674743652344,
				4.38997745513916,
				-23.482221603393555
			],
			"type":"VEC3"
		},
		{
			"bufferView":37,
			"componentType":5126,
			"count":12,
			"type":"VEC3"
		},
		{
			"bufferView":38,
			"componentType":5126,
			"count":12,
			"type":"VEC2"
		},
		{
			"bufferView":39,
			"componentType":5126,
			"count":164,
			"max":[
				57.154930114746094,
				7.2196550369262695,
				-22.251163482666016
			],
			"min":[
				48.9817008972168,
				7.1412811279296875,
				-37.18254089355469
			],
			"type":"VEC3"
		},
		{
			"bufferView":40,
			"componentType":5126,
			"count":164,
			"type":"VEC3"
		},
		{
			"bufferView":41,
			"componentType":5126,
			"count":164,
			"type":"VEC2"
		},
		{
			"bufferView":42,
			"componentType":5126,
			"count":1186,
			"max":[
				58.009796142578125,
				7.2196550369262695,
				-17.587928771972656
			],
			"min":[
				48.97936248779297,
				-3.6023001670837402,
				-37.16394805908203
			],
			"type":"VEC3"
		},
		{
			"bufferView":43,
			"componentType":5126,
			"count":1186,
			"type":"VEC3"
		},
		{
			"bufferView":44,
			"componentType":5126,
			"count":1186,
			"type":"VEC2"
		},
		{
			"bufferView":45,
			"componentType":5123,
			"count":2910,
			"type":"SCALAR"
		},
		{
			"bufferView":46,
			"componentType":5126,
			"count":1186,
			"max":[
				78.32987213134766,
				7.2196550369262695,
				-15.258312225341797
			],
			"min":[
				61.66575622558594,
				-3.6023001670837402,
				-30.15127944946289
			],
			"type":"VEC3"
		},
		{
			"bufferView":47,
			"componentType":5126,
			"count":1186,
			"type":"VEC3"
		},
		{
			"bufferView":48,
			"componentType":5126,
			"count":1186,
			"type":"VEC2"
		},
		{
			"bufferView":49,
			"componentType":5123,
			"count":2910,
			"type":"SCALAR"
		},
		{
			"bufferView":50,
			"componentType":5126,
			"count":1186,
			"max":[
				78.80197143554688,
				7.2196550369262695,
				4.153343200683594
			],
			"min":[
				61.805824279785156,
				-3.6023001670837402,
				-10.304975509643555
			],
			"type":"VEC3"
		},
		{
			"bufferView":51,
			"componentType":5126,
			"count":1186,
			"type":"VEC3"
		},
		{
			"bufferView":52,
			"componentType":5126,
			"count":1186,
			"type":"VEC2"
		},
		{
			"bufferView":53,
			"componentType":5123,
			"count":2910,
			"type":"SCALAR"
		},
		{
			"bufferView":54,
			"componentType":5126,
			"count":82,
			"max":[
				52.90251922607422,
				4.4044599533081055,
				-10.67662239074707
			],
			"min":[
				29.31317138671875,
				0.8636360168457031,
				-14.556364059448242
			],
			"type":"VEC3"
		},
		{
			"bufferView":55,
			"componentType":5126,
			"count":82,
			"type":"VEC3"
		},
		{
			"bufferView":56,
			"componentType":5126,
			"count":82,
			"type":"VEC2"
		},
		{
			"bufferView":57,
			"componentType":5123,
			"count":192,
			"type":"SCALAR"
		},
		{
			"bufferView":58,
			"componentType":5126,
			"count":586,
			"max":[
				54.73332595825195,
				20.753387451171875,
				-33.421356201171875
			],
			"min":[
				47.3721923828125,
				-0.3991718292236328,
				-39.759971618652344
			],
			"type":"VEC3"
		},
		{
			"bufferView":59,
			"componentType":5126,
			"count":586,
			"type":"VEC3"
		},
		{
			"bufferView":60,
			"componentType":5126,
			"count":586,
			"type":"VEC2"
		},
		{
			"bufferView":61,
			"componentType":5123,
			"count":1356,
			"type":"SCALAR"
		},
		{
			"bufferView":62,
			"componentType":5126,
			"count":91,
			"max":[
				57.2315788269043,
				7.934662818908691,
				-22.892147064208984
			],
			"min":[
				54.013153076171875,
				7.167661666870117,
				-35.34918212890625
			],
			"type":"VEC3"
		},
		{
			"bufferView":63,
			"componentType":5126,
			"count":91,
			"type":"VEC3"
		},
		{
			"bufferView":64,
			"componentType":5126,
			"count":91,
			"type":"VEC2"
		},
		{
			"bufferView":65,
			"componentType":5123,
			"count":432,
			"type":"SCALAR"
		},
		{
			"bufferView":66,
			"componentType":5126,
			"count":91,
			"max":[
				54.36198806762695,
				7.934662818908691,
				-22.249404907226562
			],
			"min":[
				49.06511688232422,
				7.167661666870117,
				-33.82461166381836
			],
			"type":"VEC3"
		},
		{
			"bufferView":67,
			"componentType":5126,
			"count":91,
			"type":"VEC3"
		},
		{
			"bufferView":68,
			"componentType":5126,
			"count":91,
			"type":"VEC2"
		},
		{
			"bufferView":69,
			"componentType":5126,
			"count":586,
			"max":[
				80.81570434570312,
				20.753387451171875,
				-24.960681915283203
			],
			"min":[
				73.49470520019531,
				-0.3991718292236328,
				-32.538612365722656
			],
			"type":"VEC3"
		},
		{
			"bufferView":70,
			"componentType":5126,
			"count":586,
			"type":"VEC3"
		},
		{
			"bufferView":71,
			"componentType":5126,
			"count":586,
			"type":"VEC2"
		},
		{
			"bufferView":72,
			"componentType":5123,
			"count":1356,
			"type":"SCALAR"
		},
		{
			"bufferView":73,
			"componentType":5126,
			"count":91,
			"max":[
				77.46236419677734,
				7.934662818908691,
				-18.30301284790039
			],
			"min":[
				66.8441162109375,
				7.167661666870117,
				-25.62020492553711
			],
			"type":"VEC3"
		},
		{
			"bufferView":74,
			"componentType":5126,
			"count":91,
			"type":"VEC3"
		},
		{
			"bufferView":75,
			"componentType":5126,
			"count":91,
			"type":"VEC2"
		},
		{
			"bufferView":76,
			"componentType":5126,
			"count":91,
			"max":[
				74.10400390625,
				7.934662818908691,
				-20.161151885986328
			],
			"min":[
				65.35676574707031,
				7.167661666870117,
				-29.560935974121094
			],
			"type":"VEC3"
		},
		{
			"bufferView":77,
			"componentType":5126,
			"count":91,
			"type":"VEC3"
		},
		{
			"bufferView":78,
			"componentType":5126,
			"count":91,
			"type":"VEC2"
		},
		{
			"bufferView":79,
			"componentType":5126,
			"count":586,
			"max":[
				81.28333282470703,
				20.753387451171875,
				6.534756660461426
			],
			"min":[
				74.03536987304688,
				-0.3991718292236328,
				-1.0713956356048584
			],
			"type":"VEC3"
		},
		{
			"bufferView":80,
			"componentType":5126,
			"count":586,
			"type":"VEC3"
		},
		{
			"bufferView":81,
			"componentType":5126,
			"count":586,
			"type":"VEC2"
		},
		{
			"bufferView":82,
			"componentType":5123,
			"count":1356,
			"type":"SCALAR"
		},
		{
			"bufferView":83,
			"componentType":5126,
			"count":91,
			"max":[
				74.62808227539062,
				7.934662818908691,
				3.646230697631836
			],
			"min":[
				65.61825561523438,
				7.167661666870117,
				-5.48335075378418
			],
			"type":"VEC3"
		},
		{
			"bufferView":84,
			"componentType":5126,
			"count":91,
			"type":"VEC3"
		},
		{
			"bufferView":85,
			"componentType":5126,
			"count":91,
			"type":"VEC2"
		},
		{
			"bufferView":86,
			"componentType":5126,
			"count":91,
			"max":[
				77.86070251464844,
				7.934662818908691,
				-0.3982810974121094
			],
			"min":[
				67.03246307373047,
				7.167661666870117,
				-7.414684295654297
			],
			"type":"VEC3"
		},
		{
			"bufferView":87,
			"componentType":5126,
			"count":91,
			"type":"VEC3"
		},
		{
			"bufferView":88,
			"componentType":5126,
			"count":91,
			"type":"VEC2"
		},
		{
			"bufferView":89,
			"componentType":5126,
			"count":586,
			"max":[
				55.30311965942383,
				20.753387451171875,
				14.523218154907227
			],
			"min":[
				47.99509811401367,
				-0.3991718292236328,
				8.251516342163086
			],
			"type":"VEC3"
		},
		{
			"bufferView":90,
			"componentType":5126,
			"count":586,
			"type":"VEC3"
		},
		{
			"bufferView":91,
			"componentType":5126,
			"count":586,
			"type":"VEC2"
		},
		{
			"bufferView":92,
			"componentType":5123,
			"count":1356,
			"type":"SCALAR"
		},
		{
			"bufferView":93,
			"componentType":5126,
			"count":91,
			"max":[
				54.607425689697266,
				7.934662818908691,
				8.638101577758789
			],
			"min":[
				49.593055725097656,
				7.167661666870117,
				-3.0536842346191406
			],
			"type":"VEC3"
		},
		{
			"bufferView":94,
			"componentType":5126,
			"count":91,
			"type":"VEC3"
		},
		{
			"bufferView":95,
			"componentType":5126,
			"count":91,
			"type":"VEC2"
		},
		{
			"bufferView":96,
			"componentType":5126,
			"count":91,
			"max":[
				57.53522491455078,
				7.934662818908691,
				10.040401458740234
			],
			"min":[
				54.577117919921875,
				7.167661666870117,
				-2.4639759063720703
			],
			"type":"VEC3"
		},
		{
			"bufferView":97,
			"componentType":5126,
			"count":91,
			"type":"VEC3"
		},
		{
			"bufferView":98,
			"componentType":5126,
			"count":91,
			"type":"VEC2"
		},
		{
			"bufferView":99,
			"componentType":5126,
			"count":756,
			"max":[
				65.99234771728516,
				8.48283576965332,
				-4.343024253845215
			],
			"min":[
				49.942955017089844,
				-3.868511199951172,
				-21.123188018798828
			],
			"type":"VEC3"
		},
		{
			"bufferView":100,
			"componentType":5126,
			"count":756,
			"type":"VEC3"
		},
		{
			"bufferView":101,
			"componentType":5126,
			"count":756,
			"type":"VEC2"
		},
		{
			"bufferView":102,
			"componentType":5123,
			"count":2280,
			"type":"SCALAR"
		},
		{
			"bufferView":103,
			"componentType":5126,
			"count":1186,
			"max":[
				58.14188003540039,
				7.2196550369262695,
				11.927360534667969
			],
			"min":[
				49.55105209350586,
				-3.6023001670837402,
				-7.748432159423828
			],
			"type":"VEC3"
		},
		{
			"bufferView":104,
			"componentType":5126,
			"count":1186,
			"type":"VEC3"
		},
		{
			"bufferView":105,
			"componentType":5126,
			"count":1186,
			"type":"VEC2"
		},
		{
			"bufferView":106,
			"componentType":5123,
			"count":2910,
			"type":"SCALAR"
		},
		{
			"bufferView":107,
			"componentType":5126,
			"count":605,
			"max":[
				1.4523082971572876,
				2.8372788429260254,
				5.887140274047852
			],
			"min":[
				-1.4523086547851562,
				-1.230309247970581,
				-14.024028778076172
			],
			"type":"VEC3"
		},
		{
			"bufferView":108,
			"componentType":5126,
			"count":605,
			"type":"VEC3"
		},
		{
			"bufferView":109,
			"componentType":5126,
			"count":605,
			"type":"VEC2"
		},
		{
			"bufferView":110,
			"componentType":5123,
			"count":1188,
			"type":"SCALAR"
		},
		{
			"bufferView":111,
			"componentType":5126,
			"count":605,
			"max":[
				1.4523082971572876,
				2.8372788429260254,
				5.887140274047852
			],
			"min":[
				-1.4523086547851562,
				-1.230309247970581,
				-14.024028778076172
			],
			"type":"VEC3"
		},
		{
			"bufferView":112,
			"componentType":5126,
			"count":605,
			"type":"VEC3"
		},
		{
			"bufferView":113,
			"componentType":5126,
			"count":605,
			"type":"VEC2"
		},
		{
			"bufferView":114,
			"componentType":5126,
			"count":605,
			"max":[
				1.4523082971572876,
				2.8372788429260254,
				5.887140274047852
			],
			"min":[
				-1.4523086547851562,
				-1.230309247970581,
				-14.024028778076172
			],
			"type":"VEC3"
		},
		{
			"bufferView":115,
			"componentType":5126,
			"count":605,
			"type":"VEC3"
		},
		{
			"bufferView":116,
			"componentType":5126,
			"count":605,
			"type":"VEC2"
		},
		{
			"bufferView":117,
			"componentType":5126,
			"count":605,
			"max":[
				1.4523082971572876,
				2.8372788429260254,
				5.887140274047852
			],
			"min":[
				-1.4523086547851562,
				-1.230309247970581,
				-14.024028778076172
			],
			"type":"VEC3"
		},
		{
			"bufferView":118,
			"componentType":5126,
			"count":605,
			"type":"VEC3"
		},
		{
			"bufferView":119,
			"componentType":5126,
			"count":605,
			"type":"VEC2"
		},
		{
			"bufferView":120,
			"componentType":5126,
			"count":605,
			"max":[
				1.4523082971572876,
				2.8372788429260254,
				5.887140274047852
			],
			"min":[
				-1.4523086547851562,
				-1.230309247970581,
				-14.024028778076172
			],
			"type":"VEC3"
		},
		{
			"bufferView":121,
			"componentType":5126,
			"count":605,
			"type":"VEC3"
		},
		{
			"bufferView":122,
			"componentType":5126,
			"count":605,
			"type":"VEC2"
		},
		{
			"bufferView":123,
			"componentType":5126,
			"count":605,
			"max":[
				1.4523082971572876,
				2.8372788429260254,
				5.887140274047852
			],
			"min":[
				-1.4523086547851562,
				-1.230309247970581,
				-14.024028778076172
			],
			"type":"VEC3"
		},
		{
			"bufferView":124,
			"componentType":5126,
			"count":605,
			"type":"VEC3"
		},
		{
			"bufferView":125,
			"componentType":5126,
			"count":605,
			"type":"VEC2"
		},
		{
			"bufferView":126,
			"componentType":5126,
			"count":605,
			"max":[
				1.4523082971572876,
				2.8372788429260254,
				5.887140274047852
			],
			"min":[
				-1.4523086547851562,
				-1.230309247970581,
				-14.024028778076172
			],
			"type":"VEC3"
		},
		{
			"bufferView":127,
			"componentType":5126,
			"count":605,
			"type":"VEC3"
		},
		{
			"bufferView":128,
			"componentType":5126,
			"count":605,
			"type":"VEC2"
		},
		{
			"bufferView":129,
			"componentType":5126,
			"count":605,
			"max":[
				1.4523082971572876,
				2.8372788429260254,
				5.887140274047852
			],
			"min":[
				-1.4523086547851562,
				-1.230309247970581,
				-14.024028778076172
			],
			"type":"VEC3"
		},
		{
			"bufferView":130,
			"componentType":5126,
			"count":605,
			"type":"VEC3"
		},
		{
			"bufferView":131,
			"componentType":5126,
			"count":605,
			"type":"VEC2"
		},
		{
			"bufferView":132,
			"componentType":5126,
			"count":605,
			"max":[
				1.4523082971572876,
				2.8372788429260254,
				5.887140274047852
			],
			"min":[
				-1.4523086547851562,
				-1.230309247970581,
				-14.024028778076172
			],
			"type":"VEC3"
		},
		{
			"bufferView":133,
			"componentType":5126,
			"count":605,
			"type":"VEC3"
		},
		{
			"bufferView":134,
			"componentType":5126,
			"count":605,
			"type":"VEC2"
		},
		{
			"bufferView":135,
			"componentType":5126,
			"count":605,
			"max":[
				1.4523082971572876,
				2.8372788429260254,
				5.887140274047852
			],
			"min":[
				-1.4523086547851562,
				-1.230309247970581,
				-14.024028778076172
			],
			"type":"VEC3"
		},
		{
			"bufferView":136,
			"componentType":5126,
			"count":605,
			"type":"VEC3"
		},
		{
			"bufferView":137,
			"componentType":5126,
			"count":605,
			"type":"VEC2"
		},
		{
			"bufferView":138,
			"componentType":5126,
			"count":605,
			"max":[
				1.4523082971572876,
				2.8372788429260254,
				5.887140274047852
			],
			"min":[
				-1.4523086547851562,
				-1.230309247970581,
				-14.024028778076172
			],
			"type":"VEC3"
		},
		{
			"bufferView":139,
			"componentType":5126,
			"count":605,
			"type":"VEC3"
		},
		{
			"bufferView":140,
			"componentType":5126,
			"count":605,
			"type":"VEC2"
		},
		{
			"bufferView":141,
			"componentType":5126,
			"count":605,
			"max":[
				1.4523082971572876,
				2.8372788429260254,
				5.887140274047852
			],
			"min":[
				-1.4523086547851562,
				-1.230309247970581,
				-14.024028778076172
			],
			"type":"VEC3"
		},
		{
			"bufferView":142,
			"componentType":5126,
			"count":605,
			"type":"VEC3"
		},
		{
			"bufferView":143,
			"componentType":5126,
			"count":605,
			"type":"VEC2"
		},
		{
			"bufferView":144,
			"componentType":5126,
			"count":3308,
			"max":[
				11.64018440246582,
				11.23442554473877,
				2.5685884952545166
			],
			"min":[
				9.116535186767578,
				-3.8276023864746094,
				-2.5685884952545166
			],
			"type":"VEC3"
		},
		{
			"bufferView":145,
			"componentType":5126,
			"count":3308,
			"type":"VEC3"
		},
		{
			"bufferView":146,
			"componentType":5126,
			"count":3308,
			"type":"VEC2"
		},
		{
			"bufferView":147,
			"componentType":5123,
			"count":6336,
			"type":"SCALAR"
		},
		{
			"bufferView":148,
			"componentType":5126,
			"count":3308,
			"max":[
				11.64018440246582,
				11.23442554473877,
				2.5685884952545166
			],
			"min":[
				9.116535186767578,
				-3.8276023864746094,
				-2.5685884952545166
			],
			"type":"VEC3"
		},
		{
			"bufferView":149,
			"componentType":5126,
			"count":3308,
			"type":"VEC3"
		},
		{
			"bufferView":150,
			"componentType":5126,
			"count":3308,
			"type":"VEC2"
		},
		{
			"bufferView":151,
			"componentType":5126,
			"count":3308,
			"max":[
				11.64018440246582,
				11.23442554473877,
				2.5685884952545166
			],
			"min":[
				9.116535186767578,
				-3.8276023864746094,
				-2.5685884952545166
			],
			"type":"VEC3"
		},
		{
			"bufferView":152,
			"componentType":5126,
			"count":3308,
			"type":"VEC3"
		},
		{
			"bufferView":153,
			"componentType":5126,
			"count":3308,
			"type":"VEC2"
		},
		{
			"bufferView":154,
			"componentType":5126,
			"count":3308,
			"max":[
				11.64018440246582,
				11.23442554473877,
				2.5685884952545166
			],
			"min":[
				9.116535186767578,
				-3.8276023864746094,
				-2.5685884952545166
			],
			"type":"VEC3"
		},
		{
			"bufferView":155,
			"componentType":5126,
			"count":3308,
			"type":"VEC3"
		},
		{
			"bufferView":156,
			"componentType":5126,
			"count":3308,
			"type":"VEC2"
		},
		{
			"bufferView":157,
			"componentType":5126,
			"count":3308,
			"max":[
				11.64018440246582,
				11.23442554473877,
				2.5685884952545166
			],
			"min":[
				9.116535186767578,
				-3.8276023864746094,
				-2.5685884952545166
			],
			"type":"VEC3"
		},
		{
			"bufferView":158,
			"componentType":5126,
			"count":3308,
			"type":"VEC3"
		},
		{
			"bufferView":159,
			"componentType":5126,
			"count":3308,
			"type":"VEC2"
		}
	],
	"bufferViews":[
		{
			"buffer":0,
			"byteLength":288,
			"byteOffset":0,
			"target":34962
		},
		{
			"buffer":0,
			"byteLength":288,
			"byteOffset":288,
			"target":34962
		},
		{
			"buffer":0,
			"byteLength":192,
			"byteOffset":576,
			"target":34962
		},
		{
			"buffer":0,
			"byteLength":72,
			"byteOffset":768,
			"target":34963
		},
		{
			"buffer":0,
			"byteLength":2772,
			"byteOffset":840,
			"target":34962
		},
		{
			"buffer":0,
			"byteLength":2772,
			"byteOffset":3612,
			"target":34962
		},
		{
			"buffer":0,
			"byteLength":1848,
			"byteOffset":6384,
			"target":34962
		},
		{
			"buffer":0,
			"byteLength":744,
			"byteOffset":8232,
			"target":34963
		},
		{
			"buffer":0,
			"byteLength":1776,
			"byteOffset":8976,
			"target":34962
		},
		{
			"buffer":0,
			"byteLength":1776,
			"byteOffset":10752,
			"target":34962
		},
		{
			"buffer":0,
			"byteLength":1184,
			"byteOffset":12528,
			"target":34962
		},
		{
			"buffer":0,
			"byteLength":468,
			"byteOffset":13712,
			"target":34963
		},
		{
			"buffer":0,
			"byteLength":1332,
			"byteOffset":14180,
			"target":34962
		},
		{
			"buffer":0,
			"byteLength":1332,
			"byteOffset":15512,
			"target":34962
		},
		{
			"buffer":0,
			"byteLength":888,
			"byteOffset":16844,
			"target":34962
		},
		{
			"buffer":0,
			"byteLength":654,
			"byteOffset":17732,
			"target":34963
		},
		{
			"buffer":0,
			"byteLength":144,
			"byteOffset":18388,
			"target":34962
		},
		{
			"buffer":0,
			"byteLength":144,
			"byteOffset":18532,
			"target":34962
		},
		{
			"buffer":0,
			"byteLength":96,
			"byteOffset":18676,
			"target":34962
		},
		{
			"buffer":0,
			"byteLength":48,
			"byteOffset":18772,
			"target":34963
		},
		{
			"buffer":0,
			"byteLength":1968,
			"byteOffset":18820,
			"target":34962
		},
		{
			"buffer":0,
			"byteLength":1968,
			"byteOffset":20788,
			"target":34962
		},
		{
			"buffer":0,
			"byteLength":1312,
			"byteOffset":22756,
			"target":34962
		},
		{
			"buffer":0,
			"byteLength":924,
			"byteOffset":24068,
			"target":34963
		},
		{
			"buffer":0,
			"byteLength":144,
			"byteOffset":24992,
			"target":34962
		},
		{
			"buffer":0,
			"byteLength":144,
			"byteOffset":25136,
			"target":34962
		},
		{
			"buffer":0,
			"byteLength":96,
			"byteOffset":25280,
			"target":34962
		},
		{
			"buffer":0,
			"byteLength":1968,
			"byteOffset":25376,
			"target":34962
		},
		{
			"buffer":0,
			"byteLength":1968,
			"byteOffset":27344,
			"target":34962
		},
		{
			"buffer":0,
			"byteLength":1312,
			"byteOffset":29312,
			"target":34962
		},
		{
			"buffer":0,
			"byteLength":144,
			"byteOffset":30624,
			"target":34962
		},
		{
			"buffer":0,
			"byteLength":144,
			"byteOffset":30768,
			"target":34962
		},
		{
			"buffer":0,
			"byteLength":96,
			"byteOffset":30912,
			"target":34962
		},
		{
			"buffer":0,
			"byteLength":1968,
			"byteOffset":31008,
			"target":34962
		},
		{
			"buffer":0,
			"byteLength":1968,
			"byteOffset":32976,
			"target":34962
		},
		{
			"buffer":0,
			"byteLength":1312,
			"byteOffset":34944,
			"target":34962
		},
		{
			"buffer":0,
			"byteLength":144,
			"byteOffset":36256,
			"target":34962
		},
		{
			"buffer":0,
			"byteLength":144,
			"byteOffset":36400,
			"target":34962
		},
		{
			"buffer":0,
			"byteLength":96,
			"byteOffset":36544,
			"target":34962
		},
		{
			"buffer":0,
			"byteLength":1968,
			"byteOffset":36640,
			"target":34962
		},
		{
			"buffer":0,
			"byteLength":1968,
			"byteOffset":38608,
			"target":34962
		},
		{
			"buffer":0,
			"byteLength":1312,
			"byteOffset":40576,
			"target":34962
		},
		{
			"buffer":0,
			"byteLength":14232,
			"byteOffset":41888,
			"target":34962
		},
		{
			"buffer":0,
			"byteLength":14232,
			"byteOffset":56120,
			"target":34962
		},
		{
			"buffer":0,
			"byteLength":9488,
			"byteOffset":70352,
			"target":34962
		},
		{
			"buffer":0,
			"byteLength":5820,
			"byteOffset":79840,
			"target":34963
		},
		{
			"buffer":0,
			"byteLength":14232,
			"byteOffset":85660,
			"target":34962
		},
		{
			"buffer":0,
			"byteLength":14232,
			"byteOffset":99892,
			"target":34962
		},
		{
			"buffer":0,
			"byteLength":9488,
			"byteOffset":114124,
			"target":34962
		},
		{
			"buffer":0,
			"byteLength":5820,
			"byteOffset":123612,
			"target":34963
		},
		{
			"buffer":0,
			"byteLength":14232,
			"byteOffset":129432,
			"target":34962
		},
		{
			"buffer":0,
			"byteLength":14232,
			"byteOffset":143664,
			"target":34962
		},
		{
			"buffer":0,
			"byteLength":9488,
			"byteOffset":157896,
			"target":34962
		},
		{
			"buffer":0,
			"byteLength":5820,
			"byteOffset":167384,
			"target":34963
		},
		{
			"buffer":0,
			"byteLength":984,
			"byteOffset":173204,
			"target":34962
		},
		{
			"buffer":0,
			"byteLength":984,
			"byteOffset":174188,
			"target":34962
		},
		{
			"buffer":0,
			"byteLength":656,
			"byteOffset":175172,
			"target":34962
		},
		{
			"buffer":0,
			"byteLength":384,
			"byteOffset":175828,
			"target":34963
		},
		{
			"buffer":0,
			"byteLength":7032,
			"byteOffset":176212,
			"target":34962
		},
		{
			"buffer":0,
			"byteLength":7032,
			"byteOffset":183244,
			"target":34962
		},
		{
			"buffer":0,
			"byteLength":4688,
			"byteOffset":190276,
			"target":34962
		},
		{
			"buffer":0,
			"byteLength":2712,
			"byteOffset":194964,
			"target":34963
		},
		{
			"buffer":0,
			"byteLength":1092,
			"byteOffset":197676,
			"target":34962
		},
		{
			"buffer":0,
			"byteLength":1092,
			"byteOffset":198768,
			"target":34962
		},
		{
			"buffer":0,
			"byteLength":728,
			"byteOffset":199860,
			"target":34962
		},
		{
			"buffer":0,
			"byteLength":864,
			"byteOffset":200588,
			"target":34963
		},
		{
			"buffer":0,
			"byteLength":1092,
			"byteOffset":201452,
			"target":34962
		},
		{
			"buffer":0,
			"byteLength":1092,
			"byteOffset":202544,
			"target":34962
		},
		{
			"buffer":0,
			"byteLength":728,
			"byteOffset":203636,
			"target":34962
		},
		{
			"buffer":0,
			"byteLength":7032,
			"byteOffset":204364,
			"target":34962
		},
		{
			"buffer":0,
			"byteLength":7032,
			"byteOffset":211396,
			"target":34962
		},
		{
			"buffer":0,
			"byteLength":4688,
			"byteOffset":218428,
			"target":34962
		},
		{
			"buffer":0,
			"byteLength":2712,
			"byteOffset":223116,
			"target":34963
		},
		{
			"buffer":0,
			"byteLength":1092,
			"byteOffset":225828,
			"target":34962
		},
		{
			"buffer":0,
			"byteLength":1092,
			"byteOffset":226920,
			"target":34962
		},
		{
			"buffer":0,
			"byteLength":728,
			"byteOffset":228012,
			"target":34962
		},
		{
			"buffer":0,
			"byteLength":1092,
			"byteOffset":228740,
			"target":34962
		},
		{
			"buffer":0,
			"byteLength":1092,
			"byteOffset":229832,
			"target":34962
		},
		{
			"buffer":0,
			"byteLength":728,
			"byteOffset":230924,
			"target":34962
		},
		{
			"buffer":0,
			"byteLength":7032,
			"byteOffset":231652,
			"target":34962
		},
		{
			"buffer":0,
			"byteLength":7032,
			"byteOffset":238684,
			"target":34962
		},
		{
			"buffer":0,
			"byteLength":4688,
			"byteOffset":245716,
			"target":34962
		},
		{
			"buffer":0,
			"byteLength":2712,
			"byteOffset":250404,
			"target":34963
		},
		{
			"buffer":0,
			"byteLength":1092,
			"byteOffset":253116,
			"target":34962
		},
		{
			"buffer":0,
			"byteLength":1092,
			"byteOffset":254208,
			"target":34962
		},
		{
			"buffer":0,
			"byteLength":728,
			"byteOffset":255300,
			"target":34962
		},
		{
			"buffer":0,
			"byteLength":1092,
			"byteOffset":256028,
			"target":34962
		},
		{
			"buffer":0,
			"byteLength":1092,
			"byteOffset":257120,
			"target":34962
		},
		{
			"buffer":0,
			"byteLength":728,
			"byteOffset":258212,
			"target":34962
		},
		{
			"buffer":0,
			"byteLength":7032,
			"byteOffset":258940,
			"target":34962
		},
		{
			"buffer":0,
			"byteLength":7032,
			"byteOffset":265972,
			"target":34962
		},
		{
			"buffer":0,
			"byteLength":4688,
			"byteOffset":273004,
			"target":34962
		},
		{
			"buffer":0,
			"byteLength":2712,
			"byteOffset":277692,
			"target":34963
		},
		{
			"buffer":0,
			"byteLength":1092,
			"byteOffset":280404,
			"target":34962
		},
		{
			"buffer":0,
			"byteLength":1092,
			"byteOffset":281496,
			"target":34962
		},
		{
			"buffer":0,
			"byteLength":728,
			"byteOffset":282588,
			"target":34962
		},
		{
			"buffer":0,
			"byteLength":1092,
			"byteOffset":283316,
			"target":34962
		},
		{
			"buffer":0,
			"byteLength":1092,
			"byteOffset":284408,
			"target":34962
		},
		{
			"buffer":0,
			"byteLength":728,
			"byteOffset":285500,
			"target":34962
		},
		{
			"buffer":0,
			"byteLength":9072,
			"byteOffset":286228,
			"target":34962
		},
		{
			"buffer":0,
			"byteLength":9072,
			"byteOffset":295300,
			"target":34962
		},
		{
			"buffer":0,
			"byteLength":6048,
			"byteOffset":304372,
			"target":34962
		},
		{
			"buffer":0,
			"byteLength":4560,
			"byteOffset":310420,
			"target":34963
		},
		{
			"buffer":0,
			"byteLength":14232,
			"byteOffset":314980,
			"target":34962
		},
		{
			"buffer":0,
			"byteLength":14232,
			"byteOffset":329212,
			"target":34962
		},
		{
			"buffer":0,
			"byteLength":9488,
			"byteOffset":343444,
			"target":34962
		},
		{
			"buffer":0,
			"byteLength":5820,
			"byteOffset":352932,
			"target":34963
		},
		{
			"buffer":0,
			"byteLength":7260,
			"byteOffset":358752,
			"target":34962
		},
		{
			"buffer":0,
			"byteLength":7260,
			"byteOffset":366012,
			"target":34962
		},
		{
			"buffer":0,
			"byteLength":4840,
			"byteOffset":373272,
			"target":34962
		},
		{
			"buffer":0,
			"byteLength":2376,
			"byteOffset":378112,
			"target":34963
		},
		{
			"buffer":0,
			"byteLength":7260,
			"byteOffset":380488,
			"target":34962
		},
		{
			"buffer":0,
			"byteLength":7260,
			"byteOffset":387748,
			"target":34962
		},
		{
			"buffer":0,
			"byteLength":4840,
			"byteOffset":395008,
			"target":34962
		},
		{
			"buffer":0,
			"byteLength":7260,
			"byteOffset":399848,
			"target":34962
		},
		{
			"buffer":0,
			"byteLength":7260,
			"byteOffset":407108,
			"target":34962
		},
		{
			"buffer":0,
			"byteLength":4840,
			"byteOffset":414368,
			"target":34962
		},
		{
			"buffer":0,
			"byteLength":7260,
			"byteOffset":419208,
			"target":34962
		},
		{
			"buffer":0,
			"byteLength":7260,
			"byteOffset":426468,
			"target":34962
		},
		{
			"buffer":0,
			"byteLength":4840,
			"byteOffset":433728,
			"target":34962
		},
		{
			"buffer":0,
			"byteLength":7260,
			"byteOffset":438568,
			"target":34962
		},
		{
			"buffer":0,
			"byteLength":7260,
			"byteOffset":445828,
			"target":34962
		},
		{
			"buffer":0,
			"byteLength":4840,
			"byteOffset":453088,
			"target":34962
		},
		{
			"buffer":0,
			"byteLength":7260,
			"byteOffset":457928,
			"target":34962
		},
		{
			"buffer":0,
			"byteLength":7260,
			"byteOffset":465188,
			"target":34962
		},
		{
			"buffer":0,
			"byteLength":4840,
			"byteOffset":472448,
			"target":34962
		},
		{
			"buffer":0,
			"byteLength":7260,
			"byteOffset":477288,
			"target":34962
		},
		{
			"buffer":0,
			"byteLength":7260,
			"byteOffset":484548,
			"target":34962
		},
		{
			"buffer":0,
			"byteLength":4840,
			"byteOffset":491808,
			"target":34962
		},
		{
			"buffer":0,
			"byteLength":7260,
			"byteOffset":496648,
			"target":34962
		},
		{
			"buffer":0,
			"byteLength":7260,
			"byteOffset":503908,
			"target":34962
		},
		{
			"buffer":0,
			"byteLength":4840,
			"byteOffset":511168,
			"target":34962
		},
		{
			"buffer":0,
			"byteLength":7260,
			"byteOffset":516008,
			"target":34962
		},
		{
			"buffer":0,
			"byteLength":7260,
			"byteOffset":523268,
			"target":34962
		},
		{
			"buffer":0,
			"byteLength":4840,
			"byteOffset":530528,
			"target":34962
		},
		{
			"buffer":0,
			"byteLength":7260,
			"byteOffset":535368,
			"target":34962
		},
		{
			"buffer":0,
			"byteLength":7260,
			"byteOffset":542628,
			"target":34962
		},
		{
			"buffer":0,
			"byteLength":4840,
			"byteOffset":549888,
			"target":34962
		},
		{
			"buffer":0,
			"byteLength":7260,
			"byteOffset":554728,
			"target":34962
		},
		{
			"buffer":0,
			"byteLength":7260,
			"byteOffset":561988,
			"target":34962
		},
		{
			"buffer":0,
			"byteLength":4840,
			"byteOffset":569248,
			"target":34962
		},
		{
			"buffer":0,
			"byteLength":7260,
			"byteOffset":574088,
			"target":34962
		},
		{
			"buffer":0,
			"byteLength":7260,
			"byteOffset":581348,
			"target":34962
		},
		{
			"buffer":0,
			"byteLength":4840,
			"byteOffset":588608,
			"target":34962
		},
		{
			"buffer":0,
			"byteLength":39696,
			"byteOffset":593448,
			"target":34962
		},
		{
			"buffer":0,
			"byteLength":39696,
			"byteOffset":633144,
			"target":34962
		},
		{
			"buffer":0,
			"byteLength":26464,
			"byteOffset":672840,
			"target":34962
		},
		{
			"buffer":0,
			"byteLength":12672,
			"byteOffset":699304,
			"target":34963
		},
		{
			"buffer":0,
			"byteLength":39696,
			"byteOffset":711976,
			"target":34962
		},
		{
			"buffer":0,
			"byteLength":39696,
			"byteOffset":751672,
			"target":34962
		},
		{
			"buffer":0,
			"byteLength":26464,
			"byteOffset":791368,
			"target":34962
		},
		{
			"buffer":0,
			"byteLength":39696,
			"byteOffset":817832,
			"target":34962
		},
		{
			"buffer":0,
			"byteLength":39696,
			"byteOffset":857528,
			"target":34962
		},
		{
			"buffer":0,
			"byteLength":26464,
			"byteOffset":897224,
			"target":34962
		},
		{
			"buffer":0,
			"byteLength":39696,
			"byteOffset":923688,
			"target":34962
		},
		{
			"buffer":0,
			"byteLength":39696,
			"byteOffset":963384,
			"target":34962
		},
		{
			"buffer":0,
			"byteLength":26464,
			"byteOffset":1003080,
			"target":34962
		},
		{
			"buffer":0,
			"byteLength":39696,
			"byteOffset":1029544,
			"target":34962
		},
		{
			"buffer":0,
			"byteLength":39696,
			"byteOffset":1069240,
			"target":34962
		},
		{
			"buffer":0,
			"byteLength":26464,
			"byteOffset":1108936,
			"target":34962
		}
	],
	"samplers":[
		{
			"magFilter":9729,
			"minFilter":9987
		}
	],
	"buffers":[
		{
			"byteLength":1135400,
			"uri":"Escenario_2.bin"
		}
	]
}
